<svg width="26" height="26" viewBox="0 0 26 26" fill="none" xmlns="http://www.w3.org/2000/svg">
<path d="M12.0625 25.1875V19.5625L7.6875 23.875L6.375 22.5625L12.0625 16.875V13.9375H9.125L3.4375 19.625L2.125 18.3125L6.4375 13.9375H0.8125V12.0625H6.4375L2.125 7.6875L3.4375 6.375L9.125 12.0625H12.0625V9.125L6.375 3.4375L7.6875 2.125L12.0625 6.4375V0.8125H13.9375V6.4375L18.3125 2.125L19.625 3.4375L13.9375 9.125V12.0625H16.875L22.5625 6.375L23.875 7.6875L19.5625 12.0625H25.1875V13.9375H19.5625L23.875 18.3125L22.5625 19.625L16.875 13.9375H13.9375V16.875L19.625 22.5625L18.3125 23.875L13.9375 19.5625V25.1875H12.0625Z" fill="url(#paint0_linear_0_16025)"/>
<defs>
<linearGradient id="paint0_linear_0_16025" x1="4.97863" y1="0.812501" x2="22.3636" y2="23.4644" gradientUnits="userSpaceOnUse">
<stop stop-color="#1A3C40"/>
<stop offset="0.468163" stop-color="#236269"/>
<stop offset="1" stop-color="#1A3C40"/>
</linearGradient>
</defs>
</svg>
