<svg width="20" height="18" viewBox="0 0 20 18" fill="none" xmlns="http://www.w3.org/2000/svg">
<path d="M2.50065 17.3334C2.04232 17.3334 1.6501 17.1704 1.32398 16.8442C0.997318 16.5176 0.833984 16.1251 0.833984 15.6667V5.66675C0.833984 5.20841 0.997318 4.81619 1.32398 4.49008C1.6501 4.16341 2.04232 4.00008 2.50065 4.00008H5.12565L6.66732 2.33341H11.6673V5.66675H14.1673V8.16675H17.5007V15.6667C17.5007 16.1251 17.3376 16.5176 17.0115 16.8442C16.6848 17.1704 16.2923 17.3334 15.834 17.3334H2.50065ZM9.16732 14.4167C10.209 14.4167 11.0945 14.0523 11.824 13.3234C12.5529 12.594 12.9173 11.7084 12.9173 10.6667C12.9173 9.62508 12.5529 8.73953 11.824 8.01008C11.0945 7.28119 10.209 6.91675 9.16732 6.91675C8.12565 6.91675 7.2401 7.28119 6.51065 8.01008C5.78176 8.73953 5.41732 9.62508 5.41732 10.6667C5.41732 11.7084 5.78176 12.594 6.51065 13.3234C7.2401 14.0523 8.12565 14.4167 9.16732 14.4167ZM9.16732 12.7501C8.58398 12.7501 8.09093 12.5487 7.68815 12.1459C7.28537 11.7431 7.08398 11.2501 7.08398 10.6667C7.08398 10.0834 7.28537 9.59036 7.68815 9.18758C8.09093 8.7848 8.58398 8.58341 9.16732 8.58341C9.75065 8.58341 10.2437 8.7848 10.6465 9.18758C11.0493 9.59036 11.2507 10.0834 11.2507 10.6667C11.2507 11.2501 11.0493 11.7431 10.6465 12.1459C10.2437 12.5487 9.75065 12.7501 9.16732 12.7501ZM15.834 5.66675V4.00008H14.1673V2.33341H15.834V0.666748H17.5007V2.33341H19.1673V4.00008H17.5007V5.66675H15.834Z" fill="url(#paint0_linear_0_20023)"/>
<defs>
<linearGradient id="paint0_linear_0_20023" x1="3.96749" y1="0.666748" x2="15.517" y2="17.2202" gradientUnits="userSpaceOnUse">
<stop stop-color="#1A3C40"/>
<stop offset="0.468163" stop-color="#236269"/>
<stop offset="1" stop-color="#1A3C40"/>
</linearGradient>
</defs>
</svg>
