<svg width="19" height="20" viewBox="0 0 19 20" fill="none" xmlns="http://www.w3.org/2000/svg">
<path d="M9.52111 19.5C8.24619 19.5 7.04808 19.25 5.92678 18.75C4.80485 18.25 3.83235 17.575 3.0093 16.725C2.18624 15.875 1.53264 14.8707 1.04849 13.712C0.564341 12.554 0.322266 11.3167 0.322266 10C0.322266 8.66667 0.564341 7.425 1.04849 6.275C1.53264 5.125 2.18624 4.125 3.0093 3.275C3.83235 2.425 4.80485 1.75 5.92678 1.25C7.04808 0.75 8.24619 0.5 9.52111 0.5C10.8122 0.5 12.0145 0.75 13.128 1.25C14.2416 1.75 15.2099 2.425 16.0329 3.275C16.856 4.125 17.5096 5.125 17.9937 6.275C18.4779 7.425 18.72 8.66667 18.72 10V11.225C18.72 12.1417 18.4172 12.9167 17.8117 13.55C17.2068 14.1833 16.4606 14.5 15.573 14.5C14.9597 14.5 14.4191 14.354 13.9511 14.062C13.4831 13.7707 13.1119 13.375 12.8375 12.875C12.4341 13.3583 11.9622 13.75 11.4219 14.05C10.8809 14.35 10.2473 14.5 9.52111 14.5C8.31074 14.5 7.28176 14.0627 6.43417 13.188C5.58723 12.3127 5.16376 11.25 5.16376 10C5.16376 8.75 5.58723 7.68733 6.43417 6.812C7.28176 5.93733 8.31074 5.5 9.52111 5.5C10.7315 5.5 11.7605 5.93733 12.6081 6.812C13.455 7.68733 13.8785 8.75 13.8785 10V11.225C13.8785 11.7417 14.044 12.1667 14.3752 12.5C14.7057 12.8333 15.105 13 15.573 13C16.041 13 16.4406 12.8333 16.7717 12.5C17.1023 12.1667 17.2675 11.7417 17.2675 11.225V10C17.2675 7.81667 16.5048 5.93733 14.9794 4.362C13.4547 2.78733 11.6352 2 9.52111 2C7.40699 2 5.58723 2.78733 4.06184 4.362C2.53709 5.93733 1.77472 7.81667 1.77472 10C1.77472 12.1833 2.53709 14.0623 4.06184 15.637C5.58723 17.2123 7.40699 18 9.52111 18H14.3626V19.5H9.52111ZM9.52111 13C10.328 13 11.0139 12.7083 11.5788 12.125C12.1436 11.5417 12.426 10.8333 12.426 10C12.426 9.16667 12.1436 8.45833 11.5788 7.875C11.0139 7.29167 10.328 7 9.52111 7C8.7142 7 8.02832 7.29167 7.46348 7.875C6.89863 8.45833 6.61621 9.16667 6.61621 10C6.61621 10.8333 6.89863 11.5417 7.46348 12.125C8.02832 12.7083 8.7142 13 9.52111 13Z" fill="#226169"/>
</svg>
