<svg width="145" height="159" viewBox="0 0 145 159" fill="none" xmlns="http://www.w3.org/2000/svg">
<rect width="145" height="159" rx="14" fill="#F4F4F4"/>
<g filter="url(#filter0_f_1151_16516)">
<g filter="url(#filter1_f_1151_16516)">
<path d="M99.3249 52.2658C98.6625 51.02 97.4066 50.021 95.461 49.3788C93.5044 48.7329 90.9494 48.4869 87.9253 48.7063C81.882 49.1447 74.2879 51.4184 66.6295 55.4905C58.9711 59.5625 52.8396 64.5868 49.0967 69.3518C47.2238 71.7362 45.999 73.992 45.4403 75.9753C44.8848 77.9474 45.0107 79.5471 45.6731 80.793C46.3356 82.0388 47.5914 83.0378 49.537 83.68C51.4936 84.3259 54.0487 84.5719 57.0727 84.3525C63.116 83.9141 70.7101 81.6404 78.3685 77.5683C86.0269 73.4963 92.1585 68.472 95.9013 63.707C97.7742 61.3226 98.999 59.0668 99.5577 57.0835C100.113 55.1114 99.9873 53.5117 99.3249 52.2658Z" stroke="#64D2FF" stroke-width="3.33333"/>
</g>
<g filter="url(#filter2_f_1151_16516)">
<path d="M95.0775 46.1997C91.0354 41.7105 84.8852 39.723 78.0412 40.3171C71.1962 40.9112 63.7643 44.0926 57.4313 49.7948C51.0983 55.4971 47.1575 62.5557 45.8512 69.3011C44.545 76.0455 45.8787 82.3698 49.9208 86.859C53.9628 91.3481 60.1131 93.3356 66.957 92.7416C73.8021 92.1475 81.234 88.9661 87.5669 83.2638C93.8999 77.5616 97.8408 70.5029 99.1471 63.7575C100.453 57.0132 99.1195 50.6888 95.0775 46.1997Z" stroke="#64D2FF" stroke-width="3.33333"/>
</g>
<g filter="url(#filter3_f_1151_16516)">
<path d="M59.7505 60.5836C56.0942 68.4246 54.3823 76.1779 54.5057 82.3322C54.6315 88.6074 56.6172 92.6455 59.6601 94.0644C62.703 95.4834 67.0728 94.4088 71.9607 90.4716C76.7545 86.6102 81.5934 80.3151 85.2497 72.4741C88.9061 64.6331 90.618 56.8798 90.4946 50.7255C90.3688 44.4503 88.3831 40.4122 85.3402 38.9932C82.2973 37.5743 77.9275 38.6489 73.0396 42.5861C68.2458 46.4475 63.4069 52.7426 59.7505 60.5836Z" stroke="#0A84FF" stroke-width="3.33333"/>
</g>
<g filter="url(#filter4_f_1151_16516)">
<path d="M57.9351 50.3547C51.5931 56.0651 47.5951 63.0711 46.2022 69.7217C44.809 76.3737 46.0328 82.5412 49.9202 86.8587C53.8076 91.1761 59.8134 93.0378 66.5747 92.3476C73.3344 91.6575 80.7199 88.4138 87.062 82.7034C93.404 76.9929 97.402 69.9869 98.7949 63.3364C100.188 56.6843 98.9643 50.5168 95.0769 46.1994C91.1895 41.882 85.1837 40.0203 78.4225 40.7105C71.6627 41.4006 64.2772 44.6443 57.9351 50.3547Z" stroke="#0A84FF" stroke-width="3.33333"/>
</g>
</g>
<path d="M47.6963 133.444H49.7607V129.562H53.7734V127.928H49.7607V125.282H54.1562V123.58H47.6963V133.444ZM57.5742 133.561C58.5586 133.561 59.3516 133.144 59.7344 132.446H59.8574V133.444H61.8262V128.304C61.8262 126.697 60.6982 125.754 58.7021 125.754C56.8086 125.754 55.5645 126.629 55.4072 127.948L55.4004 128.01H57.2461L57.2598 127.982C57.417 127.538 57.875 127.285 58.5928 127.285C59.4131 127.285 59.8574 127.654 59.8574 128.304V128.926L58.0391 129.035C56.166 129.145 55.1201 129.938 55.1201 131.291V131.305C55.1201 132.672 56.1387 133.561 57.5742 133.561ZM57.0684 131.182V131.168C57.0684 130.621 57.4854 130.3 58.3398 130.245L59.8574 130.149V130.703C59.8574 131.496 59.167 132.104 58.2441 132.104C57.5537 132.104 57.0684 131.756 57.0684 131.182ZM67.0967 133.602C69.0586 133.602 70.2344 132.549 70.4395 130.908L70.4463 130.867H68.6006L68.5869 130.895C68.4092 131.646 67.9238 132.036 67.1035 132.036C66.0371 132.036 65.4424 131.195 65.4424 129.671V129.657C65.4424 128.153 66.0303 127.319 67.1035 127.319C67.958 127.319 68.457 127.798 68.5869 128.529L68.5938 128.543H70.4531V128.522C70.2754 126.841 69.0928 125.754 67.0967 125.754C64.7383 125.754 63.4121 127.183 63.4121 129.657V129.671C63.4121 132.173 64.7451 133.602 67.0967 133.602ZM75.3203 133.602C77.5215 133.602 78.4922 132.33 78.7246 131.387L78.7383 131.318H76.8789L76.8584 131.359C76.7217 131.646 76.2363 132.111 75.3613 132.111C74.3018 132.111 73.6387 131.394 73.6182 130.156H78.7998V129.534C78.7998 127.258 77.4326 125.754 75.2383 125.754C73.0439 125.754 71.6426 127.292 71.6426 129.685V129.691C71.6426 132.104 73.0303 133.602 75.3203 133.602ZM75.2725 127.251C76.1406 127.251 76.7627 127.812 76.8857 128.905H73.6387C73.7617 127.839 74.4043 127.251 75.2725 127.251ZM84.2412 133.444H86.3057V123.58H84.2412V133.444ZM88.6982 133.444H92.5811C95.5342 133.444 97.209 131.64 97.209 128.454V128.44C97.209 125.351 95.5137 123.58 92.5811 123.58H88.6982V133.444ZM90.7627 131.742V125.282H92.2529C94.0439 125.282 95.1035 126.444 95.1035 128.475V128.488C95.1035 130.594 94.0781 131.742 92.2529 131.742H90.7627Z" fill="#252525"/>
<defs>
<filter id="filter0_f_1151_16516" x="26.9436" y="20.4446" width="91.1109" height="91.1109" filterUnits="userSpaceOnUse" color-interpolation-filters="sRGB">
<feFlood flood-opacity="0" result="BackgroundImageFix"/>
<feBlend mode="normal" in="SourceGraphic" in2="BackgroundImageFix" result="shape"/>
<feGaussianBlur stdDeviation="0.555556" result="effect1_foregroundBlur_1151_16516"/>
</filter>
<filter id="filter1_f_1151_16516" x="28.8562" y="32.3933" width="87.2857" height="68.272" filterUnits="userSpaceOnUse" color-interpolation-filters="sRGB">
<feFlood flood-opacity="0" result="BackgroundImageFix"/>
<feBlend mode="normal" in="SourceGraphic" in2="BackgroundImageFix" result="shape"/>
<feGaussianBlur stdDeviation="7.28383" result="effect1_foregroundBlur_1151_16516"/>
</filter>
<filter id="filter2_f_1151_16516" x="39.8165" y="34.6631" width="65.3651" height="63.7323" filterUnits="userSpaceOnUse" color-interpolation-filters="sRGB">
<feFlood flood-opacity="0" result="BackgroundImageFix"/>
<feBlend mode="normal" in="SourceGraphic" in2="BackgroundImageFix" result="shape"/>
<feGaussianBlur stdDeviation="1.94235" result="effect1_foregroundBlur_1151_16516"/>
</filter>
<filter id="filter3_f_1151_16516" x="38.2644" y="22.157" width="68.4713" height="88.7437" filterUnits="userSpaceOnUse" color-interpolation-filters="sRGB">
<feFlood flood-opacity="0" result="BackgroundImageFix"/>
<feBlend mode="normal" in="SourceGraphic" in2="BackgroundImageFix" result="shape"/>
<feGaussianBlur stdDeviation="7.28383" result="effect1_foregroundBlur_1151_16516"/>
</filter>
<filter id="filter4_f_1151_16516" x="40.0958" y="35.0191" width="64.8046" height="63.0199" filterUnits="userSpaceOnUse" color-interpolation-filters="sRGB">
<feFlood flood-opacity="0" result="BackgroundImageFix"/>
<feBlend mode="normal" in="SourceGraphic" in2="BackgroundImageFix" result="shape"/>
<feGaussianBlur stdDeviation="1.94235" result="effect1_foregroundBlur_1151_16516"/>
</filter>
</defs>
</svg>
