<svg width="14" height="19" viewBox="0 0 14 19" fill="none" xmlns="http://www.w3.org/2000/svg">
<path d="M2.5 2.45724C2.18359 2.45724 1.9375 2.73849 1.9375 3.01974V16.5197C1.9375 16.8362 2.18359 17.0822 2.5 17.0822H5.3125V14.8322C5.3125 13.9182 6.05078 13.1447 7 13.1447C7.91406 13.1447 8.6875 13.9182 8.6875 14.8322V17.0822H11.5C11.7812 17.0822 12.0625 16.8362 12.0625 16.5197V3.01974C12.0625 2.73849 11.7812 2.45724 11.5 2.45724H2.5ZM0.25 3.01974C0.25 1.78928 1.23438 0.769745 2.5 0.769745H11.5C12.7305 0.769745 13.75 1.78928 13.75 3.01974V16.5197C13.75 17.7854 12.7305 18.7697 11.5 18.7697H2.5C1.23438 18.7697 0.25 17.7854 0.25 16.5197V3.01974ZM3.34375 4.42599C3.34375 4.14474 3.58984 3.86349 3.90625 3.86349H5.59375C5.875 3.86349 6.15625 4.14474 6.15625 4.42599V6.11349C6.15625 6.4299 5.875 6.67599 5.59375 6.67599H3.90625C3.58984 6.67599 3.34375 6.4299 3.34375 6.11349V4.42599ZM8.40625 3.86349H10.0938C10.375 3.86349 10.6562 4.14474 10.6562 4.42599V6.11349C10.6562 6.4299 10.375 6.67599 10.0938 6.67599H8.40625C8.08984 6.67599 7.84375 6.4299 7.84375 6.11349V4.42599C7.84375 4.14474 8.08984 3.86349 8.40625 3.86349ZM3.34375 8.92599C3.34375 8.64474 3.58984 8.36349 3.90625 8.36349H5.59375C5.875 8.36349 6.15625 8.64474 6.15625 8.92599V10.6135C6.15625 10.9299 5.875 11.176 5.59375 11.176H3.90625C3.58984 11.176 3.34375 10.9299 3.34375 10.6135V8.92599ZM8.40625 8.36349H10.0938C10.375 8.36349 10.6562 8.64474 10.6562 8.92599V10.6135C10.6562 10.9299 10.375 11.176 10.0938 11.176H8.40625C8.08984 11.176 7.84375 10.9299 7.84375 10.6135V8.92599C7.84375 8.64474 8.08984 8.36349 8.40625 8.36349Z" fill="url(#paint0_linear_556_12024)"/>
<defs>
<linearGradient id="paint0_linear_556_12024" x1="0" y1="-2.48026" x2="17.0125" y2="0.734683" gradientUnits="userSpaceOnUse">
<stop stop-color="#1A3C40"/>
<stop offset="0.317708" stop-color="#1D5960"/>
<stop offset="0.75" stop-color="#1D5960"/>
<stop offset="1" stop-color="#1A3C40"/>
</linearGradient>
</defs>
</svg>
