<svg width="16" height="14" viewBox="0 0 16 14" fill="none" xmlns="http://www.w3.org/2000/svg">
<path d="M5.30651 10.3334L8.00921 7.93337L10.7119 10.3334L11.763 9.40004L9.06026 7.00004L11.763 4.60004L10.7119 3.66671L8.00921 6.06671L5.30651 3.66671L4.25546 4.60004L6.95816 7.00004L4.25546 9.40004L5.30651 10.3334ZM8.00921 13.6667C6.97067 13.6667 5.99469 13.4916 5.08128 13.1414C4.16787 12.7916 3.37333 12.3167 2.69765 11.7167C2.02198 11.1167 1.48719 10.4112 1.0933 9.60004C0.698906 8.78893 0.501709 7.92226 0.501709 7.00004C0.501709 6.07782 0.698906 5.21115 1.0933 4.40004C1.48719 3.58893 2.02198 2.88337 2.69765 2.28337C3.37333 1.68337 4.16787 1.20826 5.08128 0.858041C5.99469 0.508263 6.97067 0.333374 8.00921 0.333374C9.04774 0.333374 10.0237 0.508263 10.9371 0.858041C11.8505 1.20826 12.6451 1.68337 13.3208 2.28337C13.9964 2.88337 14.5312 3.58893 14.9251 4.40004C15.3195 5.21115 15.5167 6.07782 15.5167 7.00004C15.5167 7.92226 15.3195 8.78893 14.9251 9.60004C14.5312 10.4112 13.9964 11.1167 13.3208 11.7167C12.6451 12.3167 11.8505 12.7916 10.9371 13.1414C10.0237 13.4916 9.04774 13.6667 8.00921 13.6667ZM8.00921 12.3334C9.68588 12.3334 11.106 11.8167 12.2697 10.7834C13.4334 9.75004 14.0152 8.48893 14.0152 7.00004C14.0152 5.51115 13.4334 4.25004 12.2697 3.21671C11.106 2.18337 9.68588 1.66671 8.00921 1.66671C6.33253 1.66671 4.91236 2.18337 3.7487 3.21671C2.58504 4.25004 2.00321 5.51115 2.00321 7.00004C2.00321 8.48893 2.58504 9.75004 3.7487 10.7834C4.91236 11.8167 6.33253 12.3334 8.00921 12.3334Z" fill="#C94540"/>
</svg>
