<svg width="65" height="43" viewBox="0 0 65 43" fill="none" xmlns="http://www.w3.org/2000/svg">
<mask id="mask0_2_339" style="mask-type:alpha" maskUnits="userSpaceOnUse" x="19" y="0" width="27" height="26">
<rect x="19.5" width="26" height="26" fill="#C0C0C0"/>
</mask>
<g mask="url(#mask0_2_339)">
<path d="M26.2549 21.9216C25.6591 21.9216 25.1492 21.7096 24.7253 21.2856C24.3006 20.861 24.0883 20.3507 24.0883 19.7549V16.5049H26.2549V19.7549H39.2549V16.5049H41.4216V19.7549C41.4216 20.3507 41.2096 20.861 40.7857 21.2856C40.361 21.7096 39.8508 21.9216 39.2549 21.9216H26.2549ZM32.7549 17.5882L27.3383 12.1716L28.8549 10.6007L31.6716 13.4174V4.58823H33.8383V13.4174L36.6549 10.6007L38.1716 12.1716L32.7549 17.5882Z" fill="#818181"/>
</g>
<path d="M5.11133 39.1641C2.37012 39.1641 0.606445 37.168 0.606445 34.0645V34.0576C0.606445 30.9541 2.36328 28.9717 5.11133 28.9717C7.16211 28.9717 8.75488 30.2158 9.13086 32.082L9.14453 32.1504H7.90039L7.85254 32C7.46973 30.8037 6.49902 30.1064 5.11133 30.1064C3.14258 30.1064 1.87109 31.6582 1.87109 34.0576V34.0645C1.87109 36.4639 3.14941 38.0293 5.11133 38.0293C6.49219 38.0293 7.44922 37.3457 7.87988 36.0469L7.90039 35.9854H9.14453L9.13086 36.0537C8.75488 37.9404 7.17578 39.1641 5.11133 39.1641ZM13.7418 39.1367C11.6979 39.1367 10.4674 37.708 10.4674 35.4727V35.4658C10.4674 33.2646 11.7252 31.7539 13.6666 31.7539C15.608 31.7539 16.7906 33.1963 16.7906 35.3291V35.7666H11.6705C11.6979 37.2295 12.5045 38.084 13.7691 38.084C14.6715 38.084 15.3072 37.6328 15.5123 37.0244L15.5328 36.9629H16.7018L16.6881 37.0312C16.4557 38.207 15.2936 39.1367 13.7418 39.1367ZM13.6598 32.8066C12.6275 32.8066 11.8209 33.5107 11.691 34.8369H15.5807C15.4645 33.4561 14.6988 32.8066 13.6598 32.8066ZM18.3937 39V31.8906H19.5832V33.0938H19.6105C19.8498 32.2734 20.465 31.7539 21.2648 31.7539C21.4699 31.7539 21.6477 31.7881 21.7434 31.8018V32.957C21.6477 32.9229 21.3947 32.8887 21.1076 32.8887C20.1848 32.8887 19.5832 33.5312 19.5832 34.6113V39H18.3937ZM25.7664 39.1367C24.4607 39.1367 23.8182 38.5488 23.8182 37.1885V32.875H22.7791V31.8906H23.8182V29.9697H25.0486V31.8906H26.4021V32.875H25.0486V37.1816C25.0486 37.9404 25.3836 38.1523 26.0193 38.1523C26.1629 38.1523 26.2996 38.1318 26.4021 38.125V39.0889C26.2518 39.1094 25.9988 39.1367 25.7664 39.1367ZM28.7504 30.6875C28.3402 30.6875 28.0053 30.3525 28.0053 29.9424C28.0053 29.5254 28.3402 29.1973 28.7504 29.1973C29.1674 29.1973 29.4955 29.5254 29.4955 29.9424C29.4955 30.3525 29.1674 30.6875 28.7504 30.6875ZM28.1557 39V31.8906H29.3451V39H28.1557ZM31.748 39V32.875H30.7568V31.8906H31.748V31.0156C31.748 29.6484 32.3838 28.999 33.6963 28.999C33.9629 28.999 34.2432 29.0195 34.4209 29.0469V30.0107C34.2773 29.9902 34.0928 29.9834 33.9082 29.9834C33.252 29.9834 32.9238 30.3184 32.9238 31.0225V31.8906H34.3867V32.875H32.9375V39H31.748ZM36.6871 30.6875C36.277 30.6875 35.942 30.3525 35.942 29.9424C35.942 29.5254 36.277 29.1973 36.6871 29.1973C37.1041 29.1973 37.4322 29.5254 37.4322 29.9424C37.4322 30.3525 37.1041 30.6875 36.6871 30.6875ZM36.0924 39V31.8906H37.2818V39H36.0924ZM42.2482 39.1367C40.2316 39.1367 38.9533 37.7012 38.9533 35.4385V35.4316C38.9533 33.1895 40.259 31.7539 42.2346 31.7539C44.0051 31.7539 45.051 32.9297 45.2014 34.1465L45.2082 34.2012H44.0461L44.0324 34.1465C43.8547 33.4355 43.2805 32.8066 42.2346 32.8066C40.9973 32.8066 40.1701 33.832 40.1701 35.4453V35.4521C40.1701 37.1064 41.0178 38.084 42.2482 38.084C43.2189 38.084 43.841 37.5371 44.0393 36.7441L44.0529 36.6895H45.2219L45.215 36.7373C45.0236 38.0908 43.8547 39.1367 42.2482 39.1367ZM48.7938 39.1367C47.3787 39.1367 46.4285 38.2822 46.4285 36.9902V36.9766C46.4285 35.7666 47.3719 35.0078 49.0057 34.9121L51.0428 34.7959V34.2012C51.0428 33.333 50.4754 32.8066 49.4842 32.8066C48.5682 32.8066 47.9939 33.2441 47.8572 33.8799L47.8436 33.9414H46.6951L46.702 33.8662C46.8045 32.6973 47.823 31.7539 49.4979 31.7539C51.1795 31.7539 52.2322 32.6631 52.2322 34.085V39H51.0428V37.8447H51.0154C50.5984 38.624 49.7439 39.1367 48.7938 39.1367ZM47.6453 36.9902C47.6453 37.6738 48.2059 38.1045 49.0604 38.1045C50.1814 38.1045 51.0428 37.332 51.0428 36.2998V35.7188L49.1424 35.835C48.1922 35.8896 47.6453 36.3135 47.6453 36.9766V36.9902ZM56.4535 39.1367C55.1479 39.1367 54.5053 38.5488 54.5053 37.1885V32.875H53.4662V31.8906H54.5053V29.9697H55.7357V31.8906H57.0893V32.875H55.7357V37.1816C55.7357 37.9404 56.0707 38.1523 56.7064 38.1523C56.85 38.1523 56.9867 38.1318 57.0893 38.125V39.0889C56.9389 39.1094 56.6859 39.1367 56.4535 39.1367ZM61.4883 39.1367C59.4443 39.1367 58.2139 37.708 58.2139 35.4727V35.4658C58.2139 33.2646 59.4717 31.7539 61.4131 31.7539C63.3545 31.7539 64.5371 33.1963 64.5371 35.3291V35.7666H59.417C59.4443 37.2295 60.251 38.084 61.5156 38.084C62.418 38.084 63.0537 37.6328 63.2588 37.0244L63.2793 36.9629H64.4482L64.4346 37.0312C64.2021 38.207 63.04 39.1367 61.4883 39.1367ZM61.4062 32.8066C60.374 32.8066 59.5674 33.5107 59.4375 34.8369H63.3271C63.2109 33.4561 62.4453 32.8066 61.4062 32.8066Z" fill="#818181"/>
</svg>
