<svg width="70" height="18" viewBox="0 0 70 18" fill="none" xmlns="http://www.w3.org/2000/svg">
<path d="M7.22968 4.83594C7.22968 4.41927 7.18411 4.13281 7.09296 3.97656C7.01484 3.82031 6.90416 3.72266 6.76093 3.68359C6.5526 3.63151 6.38332 3.56641 6.25312 3.48828C6.13593 3.39714 6.07734 3.26042 6.07734 3.07812C6.07734 2.7526 6.31171 2.58984 6.78046 2.58984H9.35859C9.87942 2.58984 10.4654 2.60938 11.1164 2.64844C11.7674 2.67448 12.3078 2.72656 12.7375 2.80469C14.0135 3.05208 15.0487 3.72917 15.843 4.83594C16.6372 5.92969 17.0344 7.5638 17.0344 9.73828C17.0344 11.2357 16.8391 12.4336 16.4484 13.332C16.0578 14.2174 15.537 14.9141 14.8859 15.4219C14.2739 15.9036 13.5773 16.2487 12.7961 16.457C12.0279 16.6523 11.0838 16.75 9.96405 16.75H7.22968V4.83594ZM10.7062 15.3633C11.9172 15.3633 12.9133 14.9141 13.6945 14.0156C14.4758 13.1042 14.8664 11.6784 14.8664 9.73828C14.8664 7.85026 14.5409 6.41797 13.8898 5.44141C13.2388 4.46484 12.2687 3.97656 10.9797 3.97656H10.1203C9.58645 3.97656 9.31952 4.21745 9.31952 4.69922V14.6602C9.31952 15.1289 9.58645 15.3633 10.1203 15.3633H10.7062ZM22.8601 16.75H20.7703V4.85547C20.7703 4.45182 20.7378 4.17839 20.6726 4.03516C20.6206 3.89193 20.5164 3.78776 20.3601 3.72266C20.1388 3.64453 19.937 3.57943 19.7547 3.52734C19.5724 3.47526 19.4812 3.34505 19.4812 3.13672C19.4812 2.78516 19.7351 2.60938 20.243 2.60938H22.1375C22.6193 2.60938 22.8601 2.81771 22.8601 3.23438V8.54688H27.8797V2.58984H29.9891V16.75H27.8797V9.99219H22.8601V16.75ZM41.7914 16.75L40.3656 12.2578H36.2641L34.8383 16.75H32.8266L36.5961 5.10938C36.8044 4.43229 36.8825 4.04167 36.8305 3.9375C36.7784 3.82031 36.6547 3.73568 36.4594 3.68359C36.212 3.63151 36.0167 3.56641 35.8734 3.48828C35.7432 3.39714 35.6781 3.25391 35.6781 3.05859C35.6781 2.74609 35.919 2.58984 36.4008 2.58984H39.2914L44.018 16.75H41.7914ZM39.8969 10.8125L38.2758 5.79297L36.6937 10.8125H39.8969ZM49.1797 4.67969V8.54688H51.0937C51.8229 8.54688 52.3958 8.36458 52.8125 8C53.2292 7.63542 53.4375 7.04297 53.4375 6.22266C53.4375 5.50651 53.2031 4.95312 52.7344 4.5625C52.2656 4.17188 51.6732 3.97656 50.957 3.97656H49.9609C49.4401 3.97656 49.1797 4.21094 49.1797 4.67969ZM49.1797 14.6602C49.1797 15.1289 49.4466 15.3633 49.9805 15.3633H50.9961C51.8815 15.3633 52.6107 15.1484 53.1836 14.7188C53.7695 14.276 54.0625 13.638 54.0625 12.8047C54.0625 11.8281 53.7891 11.1185 53.2422 10.6758C52.6953 10.2201 51.9922 9.99219 51.1328 9.99219H49.1797V14.6602ZM51.3476 16.75H47.1094V4.83594C47.1094 4.43229 47.0768 4.15885 47.0117 4.01562C46.9466 3.85938 46.8229 3.75521 46.6406 3.70312C46.4193 3.63802 46.2435 3.5599 46.1133 3.46875C45.9831 3.3776 45.918 3.2474 45.918 3.07812C45.918 2.7526 46.1393 2.58984 46.582 2.58984H51.1523C52.5586 2.58984 53.6523 2.88932 54.4336 3.48828C55.2148 4.08724 55.6055 4.9401 55.6055 6.04688C55.6055 6.84115 55.4036 7.51823 55 8.07812C54.6094 8.625 54.1797 8.98307 53.7109 9.15234C54.375 9.32161 54.9609 9.71875 55.4687 10.3438C55.9766 10.9688 56.2305 11.7891 56.2305 12.8047C56.2305 13.9896 55.8268 14.9466 55.0195 15.6758C54.2122 16.3919 52.9883 16.75 51.3476 16.75ZM62.0953 16.75H60.0055V4.83594C60.0055 4.43229 59.9794 4.16536 59.9273 4.03516C59.8753 3.89193 59.7646 3.78776 59.5953 3.72266C59.3609 3.64453 59.1526 3.57292 58.9703 3.50781C58.801 3.42969 58.7164 3.29948 58.7164 3.11719C58.7164 2.76562 58.9703 2.58984 59.4781 2.58984H61.3726C61.8544 2.58984 62.0953 2.79818 62.0953 3.21484V16.75Z" fill="#4D4D4D"/>
</svg>
