<svg width="59" height="41" viewBox="0 0 59 41" fill="none" xmlns="http://www.w3.org/2000/svg">
<path d="M2.2293 8.33594C2.2293 7.91927 2.18372 7.63281 2.09258 7.47656C2.01445 7.32031 1.90378 7.22266 1.76055 7.18359C1.55221 7.13151 1.38294 7.06641 1.25274 6.98828C1.13555 6.89714 1.07695 6.76042 1.07695 6.57812C1.07695 6.2526 1.31133 6.08984 1.78008 6.08984H4.3582C4.87904 6.08984 5.46497 6.10938 6.11602 6.14844C6.76706 6.17448 7.30742 6.22656 7.73711 6.30469C9.01315 6.55208 10.0483 7.22917 10.8426 8.33594C11.6368 9.42969 12.034 11.0638 12.034 13.2383C12.034 14.7357 11.8387 15.9336 11.448 16.832C11.0574 17.7174 10.5366 18.4141 9.88555 18.9219C9.27357 19.4036 8.57695 19.7487 7.7957 19.957C7.02747 20.1523 6.08346 20.25 4.96367 20.25H2.2293V8.33594ZM5.70586 18.8633C6.9168 18.8633 7.91289 18.4141 8.69414 17.5156C9.47539 16.6042 9.86602 15.1784 9.86602 13.2383C9.86602 11.3503 9.5405 9.91797 8.88945 8.94141C8.23841 7.96484 7.26836 7.47656 5.9793 7.47656H5.11992C4.58607 7.47656 4.31914 7.71745 4.31914 8.19922V18.1602C4.31914 18.6289 4.58607 18.8633 5.11992 18.8633H5.70586ZM17.8598 20.25H15.7699V8.35547C15.7699 7.95182 15.7374 7.67839 15.6723 7.53516C15.6202 7.39193 15.516 7.28776 15.3598 7.22266C15.1384 7.14453 14.9366 7.07943 14.7543 7.02734C14.572 6.97526 14.4809 6.84505 14.4809 6.63672C14.4809 6.28516 14.7348 6.10938 15.2426 6.10938H17.1371C17.6189 6.10938 17.8598 6.31771 17.8598 6.73438V12.0469H22.8793V6.08984H24.9887V20.25H22.8793V13.4922H17.8598V20.25ZM36.791 20.25L35.3652 15.7578H31.2637L29.8379 20.25H27.8262L31.5957 8.60938C31.804 7.93229 31.8822 7.54167 31.8301 7.4375C31.778 7.32031 31.6543 7.23568 31.459 7.18359C31.2116 7.13151 31.0163 7.06641 30.873 6.98828C30.7428 6.89714 30.6777 6.75391 30.6777 6.55859C30.6777 6.24609 30.9186 6.08984 31.4004 6.08984H34.291L39.0176 20.25H36.791ZM34.8965 14.3125L33.2754 9.29297L31.6934 14.3125H34.8965ZM44.1793 8.17969V12.0469H46.0934C46.8225 12.0469 47.3954 11.8646 47.8121 11.5C48.2288 11.1354 48.4371 10.543 48.4371 9.72266C48.4371 9.00651 48.2027 8.45312 47.734 8.0625C47.2652 7.67188 46.6728 7.47656 45.9566 7.47656H44.9605C44.4397 7.47656 44.1793 7.71094 44.1793 8.17969ZM44.1793 18.1602C44.1793 18.6289 44.4462 18.8633 44.9801 18.8633H45.9957C46.8811 18.8633 47.6103 18.6484 48.1832 18.2188C48.7691 17.776 49.0621 17.138 49.0621 16.3047C49.0621 15.3281 48.7887 14.6185 48.2418 14.1758C47.6949 13.7201 46.9918 13.4922 46.1324 13.4922H44.1793V18.1602ZM46.3473 20.25H42.109V8.33594C42.109 7.93229 42.0764 7.65885 42.0113 7.51562C41.9462 7.35938 41.8225 7.25521 41.6402 7.20312C41.4189 7.13802 41.2431 7.0599 41.1129 6.96875C40.9827 6.8776 40.9176 6.7474 40.9176 6.57812C40.9176 6.2526 41.1389 6.08984 41.5816 6.08984H46.152C47.5582 6.08984 48.652 6.38932 49.4332 6.98828C50.2145 7.58724 50.6051 8.4401 50.6051 9.54688C50.6051 10.3411 50.4033 11.0182 49.9996 11.5781C49.609 12.125 49.1793 12.4831 48.7105 12.6523C49.3746 12.8216 49.9605 13.2188 50.4684 13.8438C50.9762 14.4688 51.2301 15.2891 51.2301 16.3047C51.2301 17.4896 50.8264 18.4466 50.0191 19.1758C49.2119 19.8919 47.9879 20.25 46.3473 20.25ZM57.0949 20.25H55.0051V8.33594C55.0051 7.93229 54.979 7.66536 54.927 7.53516C54.8749 7.39193 54.7642 7.28776 54.5949 7.22266C54.3605 7.14453 54.1522 7.07292 53.9699 7.00781C53.8007 6.92969 53.716 6.79948 53.716 6.61719C53.716 6.26562 53.9699 6.08984 54.4777 6.08984H56.3723C56.854 6.08984 57.0949 6.29818 57.0949 6.71484V20.25ZM4.57055 29.1953V31.5156H5.71898C6.15648 31.5156 6.50023 31.4062 6.75023 31.1875C7.00023 30.9688 7.12523 30.6133 7.12523 30.1211C7.12523 29.6914 6.98461 29.3594 6.70336 29.125C6.42211 28.8906 6.06664 28.7734 5.63695 28.7734H5.0393C4.7268 28.7734 4.57055 28.9141 4.57055 29.1953ZM4.57055 35.1836C4.57055 35.4648 4.7307 35.6055 5.05102 35.6055H5.66039C6.19164 35.6055 6.62914 35.4766 6.97289 35.2188C7.32445 34.9531 7.50023 34.5703 7.50023 34.0703C7.50023 33.4844 7.33617 33.0586 7.00805 32.793C6.67992 32.5195 6.25805 32.3828 5.74242 32.3828H4.57055V35.1836ZM5.87133 36.4375H3.32836V29.2891C3.32836 29.0469 3.30883 28.8828 3.26977 28.7969C3.2307 28.7031 3.15648 28.6406 3.04711 28.6094C2.9143 28.5703 2.80883 28.5234 2.7307 28.4688C2.65258 28.4141 2.61352 28.3359 2.61352 28.2344C2.61352 28.0391 2.74633 27.9414 3.01195 27.9414H5.75414C6.59789 27.9414 7.25414 28.1211 7.72289 28.4805C8.19164 28.8398 8.42602 29.3516 8.42602 30.0156C8.42602 30.4922 8.30492 30.8984 8.06273 31.2344C7.82836 31.5625 7.57055 31.7773 7.2893 31.8789C7.68773 31.9805 8.0393 32.2188 8.34398 32.5938C8.64867 32.9688 8.80102 33.4609 8.80102 34.0703C8.80102 34.7812 8.55883 35.3555 8.07445 35.793C7.59008 36.2227 6.8557 36.4375 5.87133 36.4375ZM11.0543 33.2969V29.2891C11.0543 29.0547 11.0348 28.8945 10.9957 28.8086C10.9645 28.7227 10.902 28.6641 10.8082 28.6328C10.6832 28.6016 10.5621 28.5586 10.4449 28.5039C10.3355 28.4492 10.2809 28.3672 10.2809 28.2578C10.2809 28.0547 10.4332 27.9531 10.7379 27.9531H11.8746C12.1637 27.9531 12.3082 28.0781 12.3082 28.3281V33.0977C12.3082 33.9336 12.4332 34.5586 12.6832 34.9727C12.941 35.3867 13.3355 35.5938 13.8668 35.5938C14.3746 35.5938 14.773 35.4102 15.0621 35.043C15.359 34.6758 15.5074 34.0352 15.5074 33.1211V27.9414H16.691V33.1328C16.691 34.3672 16.4371 35.2383 15.9293 35.7461C15.4293 36.2539 14.7418 36.5078 13.8668 36.5078C12.9918 36.5078 12.3043 36.2461 11.8043 35.7227C11.3043 35.1992 11.0543 34.3906 11.0543 33.2969ZM22.3076 34.0703C22.2841 33.7344 22.1396 33.4375 21.874 33.1797C21.6162 32.9141 21.206 32.6328 20.6435 32.3359C20.0185 32.0234 19.538 31.6719 19.2021 31.2812C18.8662 30.8828 18.7099 30.3867 18.7334 29.793C18.749 29.2148 18.9716 28.7383 19.4013 28.3633C19.8388 27.9805 20.4248 27.7891 21.1591 27.7891C21.581 27.7891 21.9287 27.8164 22.2021 27.8711C22.4834 27.9258 22.7959 28 23.1396 28.0938V29.1484C22.7334 28.9688 22.3701 28.8398 22.0498 28.7617C21.7373 28.6836 21.4482 28.6445 21.1826 28.6445C20.8935 28.6445 20.6279 28.75 20.3857 28.9609C20.1435 29.1719 20.0224 29.4648 20.0224 29.8398C20.0224 30.1836 20.163 30.4883 20.4443 30.7539C20.7334 31.0117 21.1826 31.3047 21.792 31.6328C22.3935 31.9609 22.8466 32.3242 23.1513 32.7227C23.456 33.1133 23.6084 33.5703 23.6084 34.0938C23.6084 34.75 23.3818 35.3086 22.9287 35.7695C22.4755 36.2305 21.8076 36.4805 20.9248 36.5195C20.5966 36.5352 20.249 36.5078 19.8818 36.4375C19.5146 36.3594 19.2177 36.2461 18.9912 36.0977C18.8505 36.0117 18.7529 35.9062 18.6982 35.7812C18.6513 35.6562 18.6591 35.5234 18.7216 35.3828C18.7841 35.25 18.8857 35.1641 19.0263 35.125C19.1748 35.0859 19.3505 35.125 19.5537 35.2422C19.7255 35.3281 19.9404 35.4102 20.1982 35.4883C20.456 35.5586 20.6943 35.5859 20.913 35.5703C21.3896 35.5391 21.749 35.3867 21.9912 35.1133C22.2334 34.832 22.3388 34.4844 22.3076 34.0703ZM27.1624 36.4375H25.9085V29.2891C25.9085 29.0469 25.8929 28.8867 25.8616 28.8086C25.8304 28.7227 25.764 28.6602 25.6624 28.6211C25.5218 28.5742 25.3968 28.5312 25.2874 28.4922C25.1859 28.4453 25.1351 28.3672 25.1351 28.2578C25.1351 28.0469 25.2874 27.9414 25.5921 27.9414H26.7288C27.0179 27.9414 27.1624 28.0664 27.1624 28.3164V36.4375ZM31.3727 27.9414L34.2438 34.2227V27.9414H35.4509V35.8984C35.4509 36.2578 35.236 36.4375 34.8063 36.4375H34.0446L31.0563 29.9922V36.4375H29.9196V29.2773C29.9196 29.043 29.9079 28.8828 29.8845 28.7969C29.861 28.7031 29.7985 28.6406 29.697 28.6094C29.5641 28.5703 29.4509 28.5312 29.3571 28.4922C29.2634 28.4531 29.2165 28.375 29.2165 28.2578C29.2165 28.0469 29.3649 27.9414 29.6618 27.9414H31.3727ZM39.4385 31.6211H40.7745C41.1338 31.6211 41.3916 31.5664 41.5479 31.457C41.7041 31.3477 41.7823 31.1719 41.7823 30.9297C41.7823 30.8047 41.8995 30.7422 42.1338 30.7422C42.376 30.7422 42.4971 30.8047 42.4971 30.9297V33.1562C42.4971 33.2891 42.376 33.3555 42.1338 33.3555C41.8995 33.3555 41.7823 33.2891 41.7823 33.1562C41.7823 32.9219 41.7002 32.7422 41.5362 32.6172C41.3799 32.4922 41.126 32.4297 40.7745 32.4297H39.4385V35.1836C39.4385 35.4648 39.6026 35.6055 39.9307 35.6055H41.4776C41.7979 35.6055 42.0127 35.5234 42.1221 35.3594C42.2315 35.1953 42.3057 35.0234 42.3448 34.8438C42.3838 34.6328 42.5284 34.5391 42.7784 34.5625C43.0284 34.5859 43.1534 34.6875 43.1534 34.8672L43.0713 36.4375H38.1846V29.2891C38.1846 29.0391 38.1651 28.8711 38.126 28.7852C38.0948 28.6992 38.0284 28.6406 37.9268 28.6094C37.8018 28.5703 37.6963 28.5273 37.6104 28.4805C37.5323 28.4258 37.4932 28.3438 37.4932 28.2344C37.4932 28.0391 37.6299 27.9414 37.9034 27.9414H42.8838L42.9424 29.4062C42.9424 29.6094 42.8174 29.7148 42.5674 29.7227C42.3174 29.7227 42.1846 29.6172 42.169 29.4062C42.1534 29.2734 42.087 29.1367 41.9698 28.9961C41.8604 28.8477 41.6299 28.7734 41.2784 28.7734H39.919C39.5987 28.7734 39.4385 28.918 39.4385 29.207V31.6211ZM48.5121 34.0703C48.4887 33.7344 48.3441 33.4375 48.0785 33.1797C47.8207 32.9141 47.4105 32.6328 46.848 32.3359C46.223 32.0234 45.7426 31.6719 45.4066 31.2812C45.0707 30.8828 44.9145 30.3867 44.9379 29.793C44.9535 29.2148 45.1762 28.7383 45.6059 28.3633C46.0434 27.9805 46.6293 27.7891 47.3637 27.7891C47.7855 27.7891 48.1332 27.8164 48.4066 27.8711C48.6879 27.9258 49.0004 28 49.3441 28.0938V29.1484C48.9379 28.9688 48.5746 28.8398 48.2543 28.7617C47.9418 28.6836 47.6527 28.6445 47.3871 28.6445C47.098 28.6445 46.8324 28.75 46.5902 28.9609C46.348 29.1719 46.227 29.4648 46.227 29.8398C46.227 30.1836 46.3676 30.4883 46.6488 30.7539C46.9379 31.0117 47.3871 31.3047 47.9965 31.6328C48.598 31.9609 49.0512 32.3242 49.3559 32.7227C49.6605 33.1133 49.8129 33.5703 49.8129 34.0938C49.8129 34.75 49.5863 35.3086 49.1332 35.7695C48.6801 36.2305 48.0121 36.4805 47.1293 36.5195C46.8012 36.5352 46.4535 36.5078 46.0863 36.4375C45.7191 36.3594 45.4223 36.2461 45.1957 36.0977C45.0551 36.0117 44.9574 35.9062 44.9027 35.7812C44.8559 35.6562 44.8637 35.5234 44.9262 35.3828C44.9887 35.25 45.0902 35.1641 45.2309 35.125C45.3793 35.0859 45.5551 35.125 45.7582 35.2422C45.9301 35.3281 46.1449 35.4102 46.4027 35.4883C46.6605 35.5586 46.8988 35.5859 47.1176 35.5703C47.5941 35.5391 47.9535 35.3867 48.1957 35.1133C48.4379 34.832 48.5434 34.4844 48.5121 34.0703ZM55.0545 34.0703C55.031 33.7344 54.8865 33.4375 54.6209 33.1797C54.363 32.9141 53.9529 32.6328 53.3904 32.3359C52.7654 32.0234 52.2849 31.6719 51.949 31.2812C51.613 30.8828 51.4568 30.3867 51.4802 29.793C51.4959 29.2148 51.7185 28.7383 52.1482 28.3633C52.5857 27.9805 53.1716 27.7891 53.906 27.7891C54.3279 27.7891 54.6755 27.8164 54.949 27.8711C55.2302 27.9258 55.5427 28 55.8865 28.0938V29.1484C55.4802 28.9688 55.117 28.8398 54.7966 28.7617C54.4841 28.6836 54.1951 28.6445 53.9295 28.6445C53.6404 28.6445 53.3748 28.75 53.1326 28.9609C52.8904 29.1719 52.7693 29.4648 52.7693 29.8398C52.7693 30.1836 52.9099 30.4883 53.1912 30.7539C53.4802 31.0117 53.9295 31.3047 54.5388 31.6328C55.1404 31.9609 55.5935 32.3242 55.8982 32.7227C56.2029 33.1133 56.3552 33.5703 56.3552 34.0938C56.3552 34.75 56.1287 35.3086 55.6755 35.7695C55.2224 36.2305 54.5545 36.4805 53.6716 36.5195C53.3435 36.5352 52.9959 36.5078 52.6287 36.4375C52.2615 36.3594 51.9646 36.2461 51.738 36.0977C51.5974 36.0117 51.4998 35.9062 51.4451 35.7812C51.3982 35.6562 51.406 35.5234 51.4685 35.3828C51.531 35.25 51.6326 35.1641 51.7732 35.125C51.9216 35.0859 52.0974 35.125 52.3005 35.2422C52.4724 35.3281 52.6873 35.4102 52.9451 35.4883C53.2029 35.5586 53.4412 35.5859 53.6599 35.5703C54.1365 35.5391 54.4959 35.3867 54.738 35.1133C54.9802 34.832 55.0857 34.4844 55.0545 34.0703Z" fill="#4D4D4D"/>
</svg>
