<svg width="25" height="28" viewBox="0 0 25 28" fill="none" xmlns="http://www.w3.org/2000/svg">
<path d="M13.625 12.75H16.125V10.25H18.625V7.75H16.125V5.25H13.625V7.75H11.125V10.25H13.625V12.75ZM11.125 17.75H18.625V15.25H11.125V17.75ZM8 22.75C7.3125 22.75 6.72417 22.5054 6.235 22.0163C5.745 21.5263 5.5 20.9375 5.5 20.25V2.75C5.5 2.0625 5.745 1.47375 6.235 0.98375C6.72417 0.494583 7.3125 0.25 8 0.25H16.75L24.25 7.75V20.25C24.25 20.9375 24.0054 21.5263 23.5163 22.0163C23.0263 22.5054 22.4375 22.75 21.75 22.75H8ZM8 20.25H21.75V9L15.5 2.75H8V20.25ZM3 27.75C2.3125 27.75 1.72417 27.5054 1.235 27.0163C0.745 26.5263 0.5 25.9375 0.5 25.25V7.75H3V25.25H16.75V27.75H3Z" fill="url(#paint0_linear_0_19235)"/>
<defs>
<linearGradient id="paint0_linear_0_19235" x1="4.55931" y1="0.250001" x2="24.7233" y2="22.9402" gradientUnits="userSpaceOnUse">
<stop stop-color="#1A3C40"/>
<stop offset="0.468163" stop-color="#236269"/>
<stop offset="1" stop-color="#1A3C40"/>
</linearGradient>
</defs>
</svg>
