<svg width="26" height="28" viewBox="0 0 26 28" fill="none" xmlns="http://www.w3.org/2000/svg">
<path d="M0.5 6.5V0.25H6.75V2.75H3V6.5H0.5ZM23 6.5V2.75H19.25V0.25H25.5V6.5H23ZM0.5 27.75V21.5H3V25.25H6.75V27.75H0.5ZM19.25 27.75V25.25H23V21.5H25.5V27.75H19.25ZM6.75 21.5H19.25V6.5H6.75V21.5ZM6.75 24C6.0625 24 5.47417 23.7554 4.985 23.2663C4.495 22.7763 4.25 22.1875 4.25 21.5V6.5C4.25 5.8125 4.495 5.22417 4.985 4.735C5.47417 4.245 6.0625 4 6.75 4H19.25C19.9375 4 20.5263 4.245 21.0163 4.735C21.5054 5.22417 21.75 5.8125 21.75 6.5V21.5C21.75 22.1875 21.5054 22.7763 21.0163 23.2663C20.5263 23.7554 19.9375 24 19.25 24H6.75ZM9.25 11.5H16.75V9H9.25V11.5ZM9.25 15.25H16.75V12.75H9.25V15.25ZM9.25 19H16.75V16.5H9.25V19Z" fill="url(#paint0_linear_1_9102)"/>
<defs>
<linearGradient id="paint0_linear_1_9102" x1="4.77296" y1="0.250001" x2="24.79" y2="23.9603" gradientUnits="userSpaceOnUse">
<stop stop-color="#1A3C40"/>
<stop offset="0.468163" stop-color="#236269"/>
<stop offset="1" stop-color="#1A3C40"/>
</linearGradient>
</defs>
</svg>
