<svg width="18" height="14" viewBox="0 0 18 14" fill="none" xmlns="http://www.w3.org/2000/svg">
<path d="M2.25 2.02734C1.93359 2.02734 1.6875 2.30859 1.6875 2.58984V3.39844L7.73438 8.35547C8.47266 8.95312 9.49219 8.95312 10.2305 8.35547L16.3125 3.39844V2.58984C16.3125 2.30859 16.0312 2.02734 15.75 2.02734H2.25ZM1.6875 5.57812V11.5898C1.6875 11.9062 1.93359 12.1523 2.25 12.1523H15.75C16.0312 12.1523 16.3125 11.9062 16.3125 11.5898V5.57812L11.3203 9.65625C9.94922 10.7812 8.01562 10.7812 6.67969 9.65625L1.6875 5.57812ZM0 2.58984C0 1.35938 0.984375 0.339844 2.25 0.339844H15.75C16.9805 0.339844 18 1.35938 18 2.58984V11.5898C18 12.8555 16.9805 13.8398 15.75 13.8398H2.25C0.984375 13.8398 0 12.8555 0 11.5898V2.58984Z" fill="white"/>
</svg>
