<svg width="19" height="19" viewBox="0 0 19 19" fill="none" xmlns="http://www.w3.org/2000/svg">
<path d="M11.2177 12.775C11.4598 12.775 11.6696 12.6833 11.8471 12.5C12.0246 12.3167 12.1134 12.1 12.1134 11.85C12.1134 11.6 12.0246 11.3873 11.8471 11.212C11.6696 11.0373 11.4598 10.95 11.2177 10.95C10.9756 10.95 10.7658 11.0373 10.5883 11.212C10.4108 11.3873 10.322 11.6 10.322 11.85C10.322 12.1 10.4108 12.3167 10.5883 12.5C10.7658 12.6833 10.9756 12.775 11.2177 12.775ZM10.6367 9.75H11.7987C11.8148 9.3 11.8713 8.96667 11.9681 8.75C12.065 8.53333 12.299 8.24167 12.6702 7.875C13.122 7.425 13.4287 7.05 13.59 6.75C13.7514 6.45 13.8321 6.09167 13.8321 5.675C13.8321 4.975 13.59 4.39167 13.1059 3.925C12.6217 3.45833 11.9923 3.225 11.2177 3.225C10.6206 3.225 10.0922 3.39567 9.6326 3.737C9.17233 4.079 8.84537 4.54167 8.65171 5.125L9.69263 5.575C9.85401 5.175 10.0638 4.87067 10.322 4.662C10.5802 4.454 10.8788 4.35 11.2177 4.35C11.6373 4.35 11.9843 4.479 12.2586 4.737C12.533 4.99567 12.6702 5.33333 12.6702 5.75C12.6702 6 12.6017 6.23733 12.4649 6.462C12.3274 6.68733 12.0892 6.95833 11.7503 7.275C11.2823 7.69167 10.9798 8.04567 10.843 8.337C10.7055 8.629 10.6367 9.1 10.6367 9.75ZM5.69839 15.5C5.21424 15.5 4.80272 15.325 4.46381 14.975C4.12491 14.625 3.95546 14.2 3.95546 13.7V2.3C3.95546 1.8 4.12491 1.375 4.46381 1.025C4.80272 0.675 5.21424 0.5 5.69839 0.5H16.737C17.2212 0.5 17.6327 0.675 17.9716 1.025C18.3105 1.375 18.4799 1.8 18.4799 2.3V13.7C18.4799 14.2 18.3105 14.625 17.9716 14.975C17.6327 15.325 17.2212 15.5 16.737 15.5H5.69839ZM5.69839 14H16.737C16.8016 14 16.8661 13.9667 16.9307 13.9C16.9952 13.8333 17.0275 13.7667 17.0275 13.7V2.3C17.0275 2.23333 16.9952 2.16667 16.9307 2.1C16.8661 2.03333 16.8016 2 16.737 2H5.69839C5.63384 2 5.56929 2.03333 5.50473 2.1C5.44018 2.16667 5.4079 2.23333 5.4079 2.3V13.7C5.4079 13.7667 5.44018 13.8333 5.50473 13.9C5.56929 13.9667 5.63384 14 5.69839 14ZM2.30935 19C1.8252 19 1.41367 18.825 1.07476 18.475C0.735859 18.125 0.566406 17.7 0.566406 17.2V4.3H2.01886V17.2C2.01886 17.2667 2.05113 17.3333 2.11569 17.4C2.18024 17.4667 2.24479 17.5 2.30935 17.5H14.8004V19H2.30935Z" fill="#226169"/>
</svg>
