<svg width="14" height="11" viewBox="0 0 14 11" fill="none" xmlns="http://www.w3.org/2000/svg">
<path d="M8.47656 0C9.10547 0 9.625 0.519531 9.625 1.14844C9.625 1.42188 9.51562 1.69531 9.29688 1.91406L6.75391 4.64844V9.625C6.75391 10.1172 6.37109 10.5 5.87891 10.5C5.6875 10.5 5.52344 10.4727 5.38672 10.3633L3.30859 8.99609C3.00781 8.80469 2.84375 8.44922 2.84375 8.09375V4.64844L0.300781 1.91406C0.0820312 1.69531 0 1.42188 0 1.14844C0 0.519531 0.492188 0 1.12109 0H8.47656ZM4.12891 4.375V7.98438L5.44141 8.83203V4.375C5.44141 4.21094 5.52344 4.07422 5.63281 3.9375L8.06641 1.3125H1.53125L3.96484 3.9375C4.07422 4.07422 4.12891 4.21094 4.12891 4.375ZM13.3438 8.96875C13.6992 8.96875 14 9.26953 14 9.625C14 10.0078 13.6992 10.2812 13.3438 10.2812H9.40625C9.02344 10.2812 8.75 10.0078 8.75 9.625C8.75 9.26953 9.02344 8.96875 9.40625 8.96875H13.3438ZM8.75 5.25C8.75 4.89453 9.02344 4.59375 9.40625 4.59375H13.3438C13.6992 4.59375 14 4.89453 14 5.25C14 5.63281 13.6992 5.90625 13.3438 5.90625H9.40625C9.02344 5.90625 8.75 5.63281 8.75 5.25ZM13.3438 0.21875C13.6992 0.21875 14 0.519531 14 0.875C14 1.25781 13.6992 1.53125 13.3438 1.53125H11.1562C10.7734 1.53125 10.5 1.25781 10.5 0.875C10.5 0.519531 10.7734 0.21875 11.1562 0.21875H13.3438Z" fill="#818181"/>
</svg>
