<svg width="22" height="20" viewBox="0 0 22 20" fill="none" xmlns="http://www.w3.org/2000/svg">
<path d="M10.7994 17.975C10.8828 17.975 10.9788 17.95 11.0874 17.9C11.1954 17.85 11.2744 17.8 11.3244 17.75L19.3244 9.75C19.5578 9.51667 19.7284 9.275 19.8364 9.025C19.9451 8.775 19.9994 8.50833 19.9994 8.225C19.9994 7.925 19.9451 7.64167 19.8364 7.375C19.7284 7.10833 19.5578 6.86667 19.3244 6.65L15.3244 2.65C15.1078 2.41667 14.8744 2.25 14.6244 2.15C14.3744 2.05 14.1078 2 13.8244 2C13.5411 2 13.2661 2.05 12.9994 2.15C12.7328 2.25 12.4911 2.41667 12.2744 2.65L11.6994 3.225L13.5494 5.075C13.7828 5.29167 13.9534 5.53733 14.0614 5.812C14.1701 6.08733 14.2244 6.375 14.2244 6.675C14.2244 7.275 14.0204 7.77933 13.6124 8.188C13.2038 8.596 12.6911 8.8 12.0744 8.8C11.7744 8.8 11.4871 8.754 11.2124 8.662C10.9371 8.57067 10.6911 8.41667 10.4744 8.2L8.59942 6.325L4.24942 10.65C4.16609 10.7333 4.10775 10.8207 4.07442 10.912C4.04108 11.004 4.02442 11.1 4.02442 11.2C4.02442 11.3833 4.08708 11.5417 4.21242 11.675C4.33708 11.8083 4.49109 11.875 4.67442 11.875C4.77442 11.875 4.87442 11.85 4.97442 11.8C5.07442 11.75 5.15775 11.7 5.22442 11.65L8.49942 8.35L9.54942 9.425L6.27442 12.7C6.20775 12.7667 6.15375 12.85 6.11242 12.95C6.07042 13.05 6.04942 13.15 6.04942 13.25C6.04942 13.4167 6.11609 13.5667 6.24942 13.7C6.38275 13.8333 6.53275 13.9 6.69942 13.9C6.79942 13.9 6.90375 13.875 7.01242 13.825C7.12042 13.775 7.19942 13.725 7.24942 13.675L10.6494 10.275L11.6994 11.325L8.32442 14.725C8.25775 14.7917 8.20342 14.875 8.16142 14.975C8.12008 15.075 8.09942 15.175 8.09942 15.275C8.09942 15.4583 8.16175 15.6127 8.28642 15.738C8.41175 15.8627 8.56608 15.925 8.74942 15.925C8.84942 15.925 8.94542 15.9083 9.03742 15.875C9.12875 15.8417 9.21609 15.7833 9.29942 15.7L12.6994 12.325L13.7494 13.375L10.3494 16.775C10.2661 16.8583 10.2078 16.95 10.1744 17.05C10.1411 17.15 10.1244 17.2417 10.1244 17.325C10.1244 17.5083 10.1911 17.6627 10.3244 17.788C10.4578 17.9127 10.6161 17.975 10.7994 17.975ZM10.7744 19.475C10.2078 19.475 9.71609 19.2793 9.29942 18.888C8.88275 18.496 8.65775 18.0083 8.62442 17.425C8.05775 17.375 7.58709 17.1707 7.21242 16.812C6.83709 16.454 6.63275 15.975 6.59942 15.375C5.99942 15.3417 5.51609 15.1373 5.14942 14.762C4.78275 14.3873 4.59108 13.9167 4.57442 13.35C3.97442 13.3 3.48275 13.0793 3.09942 12.688C2.71608 12.296 2.52442 11.8 2.52442 11.2C2.52442 10.9 2.57875 10.6083 2.68742 10.325C2.79542 10.0417 2.95775 9.8 3.17442 9.6L8.59942 4.2L11.5244 7.125C11.5744 7.19167 11.6494 7.24567 11.7494 7.287C11.8494 7.329 11.9578 7.35 12.0744 7.35C12.2411 7.35 12.3911 7.28733 12.5244 7.162C12.6578 7.03733 12.7244 6.88333 12.7244 6.7C12.7244 6.58333 12.7038 6.479 12.6624 6.387C12.6204 6.29567 12.5661 6.21667 12.4994 6.15L8.99942 2.65C8.78275 2.41667 8.54542 2.25 8.28742 2.15C8.02875 2.05 7.75775 2 7.47442 2C7.19109 2 6.92442 2.05 6.67442 2.15C6.42442 2.25 6.18275 2.41667 5.94942 2.65L2.67442 5.95C2.49108 6.13333 2.34108 6.34567 2.22442 6.587C2.10775 6.829 2.04109 7.08333 2.02442 7.35C1.99109 7.56667 1.99542 7.779 2.03742 7.987C2.07875 8.19567 2.14942 8.39167 2.24942 8.575L1.14942 9.675C0.916085 9.34167 0.745418 8.975 0.637418 8.575C0.528752 8.175 0.482752 7.76667 0.499418 7.35C0.516085 6.88333 0.620085 6.43733 0.811418 6.012C1.00342 5.58733 1.26608 5.20833 1.59942 4.875L4.87442 1.6C5.24109 1.23333 5.64542 0.958333 6.08742 0.775C6.52875 0.591667 6.99109 0.5 7.47442 0.5C7.95775 0.5 8.42042 0.591667 8.86242 0.775C9.30375 0.958333 9.70775 1.23333 10.0744 1.6L10.6494 2.15L11.2244 1.6C11.5911 1.23333 11.9911 0.958333 12.4244 0.775C12.8578 0.591667 13.3244 0.5 13.8244 0.5C14.3078 0.5 14.7661 0.591667 15.1994 0.775C15.6328 0.958333 16.0328 1.23333 16.3994 1.6L20.3744 5.575C20.7411 5.925 21.0201 6.33333 21.2114 6.8C21.4034 7.26667 21.4994 7.74167 21.4994 8.225C21.4994 8.70833 21.4034 9.17067 21.2114 9.612C21.0201 10.054 20.7411 10.4583 20.3744 10.825L12.3744 18.8C12.1578 19.0167 11.9121 19.1833 11.6374 19.3C11.3621 19.4167 11.0744 19.475 10.7744 19.475Z" fill="#226169"/>
</svg>
