<svg width="103" height="104" viewBox="0 0 103 104" fill="none" xmlns="http://www.w3.org/2000/svg">
<path d="M51.5 70.8925C58.9303 70.8925 64.1517 67.4785 67.164 64.2654C68.9713 62.2572 71.9836 62.0564 73.9918 63.8638C76 65.6712 76 68.6835 74.1927 70.6917C69.7746 75.5113 62.1435 80.5318 51.5 80.5318C40.6557 80.5318 33.0246 75.5113 28.6065 70.6917C26.7991 68.6835 26.7991 65.6712 28.8073 63.8638C30.8155 62.0564 33.8278 62.2572 35.6352 64.2654C38.6475 67.4785 43.8688 70.8925 51.5 70.8925ZM41.8606 41.9744C41.8606 45.5892 39.0492 48.4007 35.4344 48.4007C31.8196 48.4007 29.0082 45.5892 29.0082 41.9744C29.0082 38.5605 31.8196 35.5482 35.4344 35.5482C39.0492 35.5482 41.8606 38.5605 41.8606 41.9744ZM61.1394 41.9744C61.1394 38.5605 63.9508 35.5482 67.5656 35.5482C71.1804 35.5482 73.9918 38.5605 73.9918 41.9744C73.9918 45.5892 71.1804 48.4007 67.5656 48.4007C63.9508 48.4007 61.1394 45.5892 61.1394 41.9744ZM102.91 51.6138C102.91 80.1302 79.8156 103.024 51.5 103.024C22.9836 103.024 0.0900879 80.1302 0.0900879 51.6138C0.0900879 23.2982 22.9836 0.203857 51.5 0.203857C79.8156 0.203857 102.91 23.2982 102.91 51.6138ZM51.5 9.84322C28.4057 9.84322 9.72945 28.7203 9.72945 51.6138C9.72945 74.7081 28.4057 93.3843 51.5 93.3843C74.3935 93.3843 93.2706 74.7081 93.2706 51.6138C93.2706 28.7203 74.3935 9.84322 51.5 9.84322Z" fill="url(#paint0_linear_49_93)"/>
<defs>
<linearGradient id="paint0_linear_49_93" x1="0.0900879" y1="0.203857" x2="117.205" y2="38.1442" gradientUnits="userSpaceOnUse">
<stop stop-color="#1A3C40"/>
<stop offset="0.317708" stop-color="#1D5960"/>
<stop offset="0.75" stop-color="#1D5960"/>
<stop offset="1" stop-color="#1A3C40"/>
</linearGradient>
</defs>
</svg>
