<svg width="114" height="114" viewBox="0 0 114 114" fill="none" xmlns="http://www.w3.org/2000/svg">
<path d="M113.5 56.8196C113.5 88.1594 88.1191 113.32 57 113.32C25.6602 113.32 0.5 88.1594 0.5 56.8196C0.5 25.7004 25.6602 0.31958 57 0.31958C88.1191 0.31958 113.5 25.7004 113.5 56.8196ZM57 10.9133C31.6191 10.9133 11.0938 31.6594 11.0938 56.8196C11.0938 82.2004 31.6191 102.726 57 102.726C82.1602 102.726 102.906 82.2004 102.906 56.8196C102.906 31.6594 82.1602 10.9133 57 10.9133Z" fill="#F39C12"/>
<path d="M75.7914 28.0842C77.2455 28.0842 78.4759 29.3146 78.4759 30.7687C78.4759 32.3346 77.2455 33.4531 75.7914 33.4531H74.8966V35.5784C74.8966 40.1644 72.9951 44.4148 69.8632 47.6585L60.6912 56.7187L69.8632 65.8907C72.9951 69.0226 74.8966 73.3849 74.8966 77.859V79.9842H75.7914C77.2455 79.9842 78.4759 81.2146 78.4759 82.6687C78.4759 84.2347 77.2455 85.3532 75.7914 85.3532H38.2086C36.6426 85.3532 35.5241 84.2347 35.5241 82.6687C35.5241 81.2146 36.6426 79.9842 38.2086 79.9842H39.1034V77.859C39.1034 73.3849 40.8931 69.0226 44.025 65.8907L53.197 56.7187L44.025 47.6585C40.8931 44.4148 39.1034 40.1644 39.1034 35.5784V33.4531H38.2086C36.6426 33.4531 35.5241 32.3346 35.5241 30.7687C35.5241 29.3146 36.6426 28.0842 38.2086 28.0842H75.7914ZM57 60.5217L47.828 69.6937C45.5909 71.8189 44.4724 74.839 44.4724 77.859V79.9842H69.5276V77.859C69.5276 74.839 68.2972 71.8189 66.0601 69.6937L57 60.5217ZM57 53.0275L66.0601 43.8555C68.2972 41.6185 69.5276 38.7103 69.5276 35.5784V33.4531H44.4724V35.5784C44.4724 38.7103 45.5909 41.6185 47.828 43.8555L57 53.0275Z" fill="#F39C12"/>
</svg>
