<svg width="11" height="14" viewBox="0 0 11 14" fill="none" xmlns="http://www.w3.org/2000/svg">
<path d="M5.7234 6.33337C6.43138 6.33337 7.03745 6.07226 7.54162 5.55004C8.04578 5.02782 8.29787 4.40004 8.29787 3.66671V1.66671H3.14893V3.66671C3.14893 4.40004 3.40101 5.02782 3.90518 5.55004C4.40935 6.07226 5.01542 6.33337 5.7234 6.33337ZM0.574463 13.6667V12.3334H1.8617V10.3334C1.8617 9.6556 2.01466 9.01937 2.3206 8.42471C2.6261 7.83048 3.05239 7.3556 3.59946 7.00004C3.05239 6.64448 2.6261 6.16937 2.3206 5.57471C2.01466 4.98048 1.8617 4.34448 1.8617 3.66671V1.66671H0.574463V0.333374H10.8723V1.66671H9.5851V3.66671C9.5851 4.34448 9.43235 4.98048 9.12685 5.57471C8.82091 6.16937 8.39441 6.64448 7.84734 7.00004C8.39441 7.3556 8.82091 7.83048 9.12685 8.42471C9.43235 9.01937 9.5851 9.6556 9.5851 10.3334V12.3334H10.8723V13.6667H0.574463Z" fill="#F39C12"/>
</svg>
