<svg width="21" height="17" viewBox="0 0 21 17" fill="none" xmlns="http://www.w3.org/2000/svg">
<path d="M18.9375 5.39453V14.3945C18.9375 14.7109 18.6562 14.957 18.375 14.957H11.625C11.625 13.4102 10.3594 12.1445 8.8125 12.1445H6.5625C4.98047 12.1445 3.75 13.4102 3.75 14.957H2.625C2.30859 14.957 2.0625 14.7109 2.0625 14.3945V5.39453H18.9375ZM2.625 0.894531C1.35938 0.894531 0.375 1.91406 0.375 3.14453V14.3945C0.375 15.6602 1.35938 16.6445 2.625 16.6445H18.375C19.6055 16.6445 20.625 15.6602 20.625 14.3945V3.14453C20.625 1.91406 19.6055 0.894531 18.375 0.894531H2.625ZM9.9375 8.76953C9.9375 7.99609 9.48047 7.25781 8.8125 6.83594C8.10938 6.44922 7.23047 6.44922 6.5625 6.83594C5.85938 7.25781 5.4375 7.99609 5.4375 8.76953C5.4375 9.57812 5.85938 10.3164 6.5625 10.7383C7.23047 11.125 8.10938 11.125 8.8125 10.7383C9.48047 10.3164 9.9375 9.57812 9.9375 8.76953ZM13.5938 7.08203C13.1016 7.08203 12.75 7.46875 12.75 7.92578C12.75 8.41797 13.1016 8.76953 13.5938 8.76953H16.4062C16.8633 8.76953 17.25 8.41797 17.25 7.92578C17.25 7.46875 16.8633 7.08203 16.4062 7.08203H13.5938ZM13.5938 10.457C13.1016 10.457 12.75 10.8438 12.75 11.3008C12.75 11.793 13.1016 12.1445 13.5938 12.1445H16.4062C16.8633 12.1445 17.25 11.793 17.25 11.3008C17.25 10.8438 16.8633 10.457 16.4062 10.457H13.5938Z" fill="url(#paint0_linear_525_12406)"/>
<defs>
<linearGradient id="paint0_linear_525_12406" x1="0" y1="-3.48047" x2="24.4643" y2="3.45425" gradientUnits="userSpaceOnUse">
<stop stop-color="#1A3C40"/>
<stop offset="0.317708" stop-color="#1D5960"/>
<stop offset="0.75" stop-color="#1D5960"/>
<stop offset="1" stop-color="#1A3C40"/>
</linearGradient>
</defs>
</svg>
