<svg width="92" height="95" viewBox="0 0 92 95" fill="none" xmlns="http://www.w3.org/2000/svg">
<path d="M46.0004 91.8203C71.4058 91.8203 92.0009 71.2656 92.0009 45.9102C92.0009 20.5547 71.4058 0 46.0004 0C20.5951 0 0 20.5547 0 45.9102C0 71.2656 20.5951 91.8203 46.0004 91.8203Z" fill="#EDEDED"/>
<path d="M46.0004 55.7238C40.3626 55.7238 35.0617 53.5322 31.0748 49.5531C27.0878 45.5739 24.8918 40.2834 24.8918 34.6567C24.8918 29.0299 27.0878 23.7394 31.0748 19.7602C35.0617 15.7811 40.3626 13.5895 46.0004 13.5895C51.6383 13.5895 56.9392 15.7811 60.9261 19.7602C64.9131 23.7394 67.1091 29.0299 67.1091 34.6567C67.1091 40.2834 64.9131 45.5739 60.9261 49.5531C56.9392 53.5322 51.6383 55.7238 46.0004 55.7238ZM46.0004 17.8476C36.7135 17.8476 29.1583 25.3879 29.1583 34.6567C29.1583 43.9254 36.7135 51.4657 46.0004 51.4657C55.2874 51.4657 62.8426 43.9254 62.8426 34.6567C62.8426 25.3879 55.2874 17.8476 46.0004 17.8476Z" fill="url(#paint0_linear_19_42)"/>
<path d="M78.8949 88.5538C77.7169 88.5538 76.7617 87.6005 76.7617 86.4247C76.7617 69.4957 62.9618 55.7238 46.0004 55.7238C29.039 55.7238 15.2391 69.4966 15.2391 86.4247C15.2391 87.6005 14.284 88.5538 13.1059 88.5538C11.9278 88.5538 10.9727 87.6005 10.9727 86.4247C10.9727 81.706 11.8991 77.1273 13.7258 72.8162C15.4899 68.6528 18.0158 64.9144 21.2314 61.7043C24.4478 58.4942 28.1935 55.9741 32.3651 54.2135C36.6847 52.3903 41.2725 51.4657 46.0004 51.4657C50.7284 51.4657 55.3161 52.3903 59.6357 54.2135C63.8073 55.9741 67.5531 58.495 70.7695 61.7043C73.9859 64.9135 76.5109 68.6528 78.2759 72.8162C80.1026 77.1273 81.029 81.706 81.029 86.4247C81.029 87.6005 80.0739 88.5538 78.8958 88.5538H78.8949Z" fill="url(#paint1_linear_19_42)"/>
<path d="M85.83 90.2391C92.1903 83.8913 92.1903 73.5994 85.83 67.2516C79.4697 60.9037 69.1576 60.9037 62.7973 67.2516C56.4369 73.5994 56.4369 83.8913 62.7973 90.2391C69.1576 96.587 79.4697 96.587 85.83 90.2391Z" fill="url(#paint2_linear_19_42)"/>
<path d="M74.3133 88.6459C73.1352 88.6459 72.1801 87.6926 72.1801 86.5168V70.9748C72.1801 69.799 73.1352 68.8457 74.3133 68.8457C75.4914 68.8457 76.4465 69.799 76.4465 70.9748V86.5168C76.4465 87.6926 75.4914 88.6459 74.3133 88.6459Z" fill="white"/>
<path d="M82.1 80.8744H66.5274C65.3493 80.8744 64.3942 79.9211 64.3942 78.7454C64.3942 77.5696 65.3493 76.6163 66.5274 76.6163H82.1C83.2781 76.6163 84.2333 77.5696 84.2333 78.7454C84.2333 79.9211 83.2781 80.8744 82.1 80.8744Z" fill="white"/>
<defs>
<linearGradient id="paint0_linear_19_42" x1="24.8918" y1="34.6567" x2="40.1006" y2="14.3893" gradientUnits="userSpaceOnUse">
<stop stop-color="#005660"/>
<stop offset="1" stop-color="#007E93"/>
</linearGradient>
<linearGradient id="paint1_linear_19_42" x1="10.9727" y1="70.0097" x2="20.5545" y2="45.9378" gradientUnits="userSpaceOnUse">
<stop stop-color="#005660"/>
<stop offset="1" stop-color="#007E93"/>
</linearGradient>
<linearGradient id="paint2_linear_19_42" x1="62.7973" y1="90.2391" x2="60.0628" y2="70.8938" gradientUnits="userSpaceOnUse">
<stop stop-color="#005660"/>
<stop offset="1" stop-color="#007E93"/>
</linearGradient>
</defs>
</svg>
