<svg width="14" height="19" viewBox="0 0 14 19" fill="none" xmlns="http://www.w3.org/2000/svg">
<path d="M3.0625 1.81665C2.74609 1.81665 2.5 2.0979 2.5 2.37915V15.8792C2.5 16.1956 2.74609 16.4417 3.0625 16.4417H10.9375C11.2188 16.4417 11.5 16.1956 11.5 15.8792V2.37915C11.5 2.0979 11.2188 1.81665 10.9375 1.81665H3.0625ZM0.8125 2.37915C0.8125 1.14868 1.79688 0.12915 3.0625 0.12915H10.9375C12.168 0.12915 13.1875 1.14868 13.1875 2.37915V15.8792C13.1875 17.1448 12.168 18.1292 10.9375 18.1292H3.0625C1.79688 18.1292 0.8125 17.1448 0.8125 15.8792V2.37915ZM5.875 14.1917H8.125C8.40625 14.1917 8.6875 14.4729 8.6875 14.7542C8.6875 15.0706 8.40625 15.3167 8.125 15.3167H5.875C5.55859 15.3167 5.3125 15.0706 5.3125 14.7542C5.3125 14.4729 5.55859 14.1917 5.875 14.1917Z" fill="url(#paint0_linear_525_12390)"/>
<defs>
<linearGradient id="paint0_linear_525_12390" x1="0" y1="-3.12085" x2="17.0125" y2="0.0940888" gradientUnits="userSpaceOnUse">
<stop stop-color="#1A3C40"/>
<stop offset="0.317708" stop-color="#1D5960"/>
<stop offset="0.75" stop-color="#1D5960"/>
<stop offset="1" stop-color="#1A3C40"/>
</linearGradient>
</defs>
</svg>
