<svg width="21" height="17" viewBox="0 0 21 17" fill="none" xmlns="http://www.w3.org/2000/svg">
<path d="M6 17L4.6 15.6L6.175 13.95C4.425 13.75 2.95833 12.9917 1.775 11.675C0.591667 10.3583 0 8.8 0 7C0 5.05 0.679333 3.39567 2.038 2.037C3.396 0.679 5.05 0 7 0H10V2H7C5.61667 2 4.43767 2.48733 3.463 3.462C2.48767 4.43733 2 5.61667 2 7C2 8.23333 2.38733 9.3 3.162 10.2C3.93733 11.1 4.90833 11.6667 6.075 11.9L4.6 10.425L6 9L10 13L6 17ZM12 16V9H21V16H12ZM12 7V0H21V7H12ZM14 5H19V2H14V5Z" fill="#226169"/>
</svg>
