<svg width="23" height="29" viewBox="0 0 23 29" fill="none" xmlns="http://www.w3.org/2000/svg">
<path d="M0.5 24.125V21.375H3.25V11.75C3.25 9.84792 3.82292 8.15758 4.96875 6.679C6.11458 5.20133 7.60417 4.23333 9.4375 3.775V2.8125C9.4375 2.23958 9.63825 1.75283 10.0397 1.35225C10.4403 0.95075 10.9271 0.75 11.5 0.75C12.0729 0.75 12.5597 0.95075 12.9603 1.35225C13.3618 1.75283 13.5625 2.23958 13.5625 2.8125V3.775C15.3958 4.23333 16.8854 5.20133 18.0312 6.679C19.1771 8.15758 19.75 9.84792 19.75 11.75V21.375H22.5V24.125H0.5ZM11.5 28.25C10.7437 28.25 10.0966 27.981 9.5585 27.4429C9.0195 26.9039 8.75 26.2563 8.75 25.5H14.25C14.25 26.2563 13.981 26.9039 13.4429 27.4429C12.9039 27.981 12.2563 28.25 11.5 28.25Z" fill="url(#paint0_linear_1_9096)"/>
<defs>
<linearGradient id="paint0_linear_1_9096" x1="4.2602" y1="0.750001" x2="24.5474" y2="21.8967" gradientUnits="userSpaceOnUse">
<stop stop-color="#1A3C40"/>
<stop offset="0.468163" stop-color="#236269"/>
<stop offset="1" stop-color="#1A3C40"/>
</linearGradient>
</defs>
</svg>
