<svg width="78" height="85" viewBox="0 0 78 85" fill="none" xmlns="http://www.w3.org/2000/svg">
<path d="M0.833984 71.9584V63.5417H9.25065V34.0834C9.25065 28.2619 11.0041 23.0884 14.5111 18.5631C18.018 14.0405 22.577 11.0779 28.1882 9.67508V6.72925C28.1882 4.97578 28.8026 3.48603 30.0314 2.26C31.2574 1.03116 32.7472 0.416748 34.5007 0.416748C36.2541 0.416748 37.7439 1.03116 38.9699 2.26C40.1987 3.48603 40.8132 4.97578 40.8132 6.72925V9.67508C46.4243 11.0779 50.9833 14.0405 54.4902 18.5631C57.9972 23.0884 59.7507 28.2619 59.7507 34.0834V63.5417H68.1673V71.9584H0.833984ZM34.5007 84.5834C32.1861 84.5834 30.2053 83.76 28.5585 82.1131C26.9088 80.4635 26.084 78.4813 26.084 76.1667H42.9173C42.9173 78.4813 42.0939 80.4635 40.447 82.1131C38.7974 83.76 36.8152 84.5834 34.5007 84.5834Z" fill="url(#paint0_linear_0_1)"/>
<path d="M60.3423 24.5916L71.2111 13.7228L69.0527 11.5645L60.3423 20.2749L55.9486 15.8812L53.7902 18.0395L60.3423 24.5916ZM62.5007 32.9166C60.368 32.9166 58.3638 32.5116 56.4882 31.7018C54.6125 30.8929 52.9809 29.7947 51.5934 28.4072C50.2059 27.0197 49.1077 25.3881 48.2988 23.5124C47.4889 21.6367 47.084 19.6326 47.084 17.4999C47.084 15.3673 47.4889 13.3631 48.2988 11.4874C49.1077 9.61173 50.2059 7.98013 51.5934 6.59263C52.9809 5.20513 54.6125 4.10643 56.4882 3.29654C58.3638 2.48768 60.368 2.08325 62.5007 2.08325C64.6333 2.08325 66.6375 2.48768 68.5132 3.29654C70.3888 4.10643 72.0204 5.20513 73.4079 6.59263C74.7954 7.98013 75.8936 9.61173 76.7025 11.4874C77.5124 13.3631 77.9173 15.3673 77.9173 17.4999C77.9173 19.6326 77.5124 21.6367 76.7025 23.5124C75.8936 25.3881 74.7954 27.0197 73.4079 28.4072C72.0204 29.7947 70.3888 30.8929 68.5132 31.7018C66.6375 32.5116 64.6333 32.9166 62.5007 32.9166Z" fill="#00B894"/>
<defs>
<linearGradient id="paint0_linear_0_1" x1="12.3425" y1="0.41675" x2="74.4336" y2="65.1385" gradientUnits="userSpaceOnUse">
<stop stop-color="#1A3C40"/>
<stop offset="0.468163" stop-color="#236269"/>
<stop offset="1" stop-color="#1A3C40"/>
</linearGradient>
</defs>
</svg>
