<svg width="18" height="18" viewBox="0 0 18 18" fill="none" xmlns="http://www.w3.org/2000/svg">
<path d="M4.35 8.1C3.33333 8.1 2.45833 7.73333 1.725 7C0.991667 6.26667 0.625 5.38333 0.625 4.35C0.625 3.33333 0.991667 2.45833 1.725 1.725C2.45833 0.991667 3.34167 0.625 4.375 0.625C5.39167 0.625 6.26667 0.991667 7 1.725C7.73333 2.45833 8.1 3.34167 8.1 4.375C8.1 5.39167 7.73333 6.26667 7 7C6.26667 7.73333 5.38333 8.1 4.35 8.1ZM4.375 5.825C4.775 5.825 5.11667 5.68333 5.4 5.4C5.68333 5.11667 5.825 4.76667 5.825 4.35C5.825 3.95 5.68333 3.60833 5.4 3.325C5.11667 3.04167 4.76667 2.9 4.35 2.9C3.95 2.9 3.60833 3.04167 3.325 3.325C3.04167 3.60833 2.9 3.95833 2.9 4.375C2.9 4.775 3.04167 5.11667 3.325 5.4C3.60833 5.68333 3.95833 5.825 4.375 5.825ZM13.625 17.375C12.6083 17.375 11.7333 17.0083 11 16.275C10.2667 15.5417 9.9 14.6583 9.9 13.625C9.9 12.6083 10.2667 11.7333 11 11C11.7333 10.2667 12.6167 9.9 13.65 9.9C14.6667 9.9 15.5417 10.2667 16.275 11C17.0083 11.7333 17.375 12.6167 17.375 13.65C17.375 14.6667 17.0083 15.5417 16.275 16.275C15.5417 17.0083 14.6583 17.375 13.625 17.375ZM13.65 15.1C14.05 15.1 14.3917 14.9583 14.675 14.675C14.9583 14.3917 15.1 14.0417 15.1 13.625C15.1 13.225 14.9583 12.8833 14.675 12.6C14.3917 12.3167 14.0417 12.175 13.625 12.175C13.225 12.175 12.8833 12.3167 12.6 12.6C12.3167 12.8833 12.175 13.2333 12.175 13.65C12.175 14.05 12.3167 14.3917 12.6 14.675C12.8833 14.9583 13.2333 15.1 13.65 15.1ZM2.4 17.2L0.8 15.6L15.6 0.8L17.2 2.4L2.4 17.2Z" fill="url(#paint0_linear_0_13962)"/>
<defs>
<linearGradient id="paint0_linear_0_13962" x1="3.48788" y1="0.625" x2="15.4345" y2="16.1909" gradientUnits="userSpaceOnUse">
<stop stop-color="#1A3C40"/>
<stop offset="0.468163" stop-color="#236269"/>
<stop offset="1" stop-color="#1A3C40"/>
</linearGradient>
</defs>
</svg>
