<svg width="16" height="16" viewBox="0 0 16 16" fill="none" xmlns="http://www.w3.org/2000/svg">
<path d="M14.5625 2.625L8.5625 0.125C8.40625 0.0625 8.15625 0 8 0C7.8125 0 7.5625 0.0625 7.40625 0.125L1.40625 2.625C0.84375 2.875 0.5 3.40625 0.5 4C0.5 12.0625 6.40625 16 7.96875 16C9.59375 16 15.5 12 15.5 4C15.5 3.40625 15.125 2.875 14.5625 2.625ZM7.96875 14.5C5.09375 13.3125 2 9.5 2 4.03125L7.9375 1.53125C7.96875 1.53125 7.96875 1.53125 8 1.53125L14 4C14 10.3438 10.0625 13.6562 7.96875 14.5ZM6.25 6.5C6.25 7.21875 6.65625 7.8125 7.25 8.09375V10.25C7.25 10.6875 7.5625 11 8 11C8.40625 11 8.75 10.6875 8.75 10.25V8.09375C9.3125 7.8125 9.75 7.21875 9.75 6.5C9.75 5.5625 8.9375 4.75 8 4.75C7.03125 4.75 6.25 5.5625 6.25 6.5Z" fill="#236269"/>
</svg>
