<svg width="13" height="11" viewBox="0 0 13 11" fill="none" xmlns="http://www.w3.org/2000/svg">
<path d="M0 0.875C0 0.410156 0.382812 0 0.875 0H11.375C11.8398 0 12.25 0.410156 12.25 0.875C12.25 1.36719 11.8398 1.75 11.375 1.75H0.875C0.382812 1.75 0 1.36719 0 0.875ZM1.75 5.25C1.75 4.78516 2.13281 4.375 2.625 4.375H9.625C10.0898 4.375 10.5 4.78516 10.5 5.25C10.5 5.74219 10.0898 6.125 9.625 6.125H2.625C2.13281 6.125 1.75 5.74219 1.75 5.25ZM7.875 9.625C7.875 10.1172 7.46484 10.5 7 10.5H5.25C4.75781 10.5 4.375 10.1172 4.375 9.625C4.375 9.16016 4.75781 8.75 5.25 8.75H7C7.46484 8.75 7.875 9.16016 7.875 9.625Z" fill="#818181"/>
</svg>
