<svg width="34" height="43" viewBox="0 0 34 43" fill="none" xmlns="http://www.w3.org/2000/svg">
<path d="M9.62502 10.5832C8.25558 10.5832 7.08683 10.0991 6.11877 9.13109C5.15071 8.16303 4.66669 6.99428 4.66669 5.62484C4.66669 4.25539 5.15071 3.08664 6.11877 2.11859C7.08683 1.15053 8.25558 0.666504 9.62502 0.666504C10.9945 0.666504 12.1632 1.15053 13.1313 2.11859C14.0993 3.08664 14.5834 4.25539 14.5834 5.62484C14.5834 6.99428 14.0993 8.16303 13.1313 9.13109C12.1632 10.0991 10.9945 10.5832 9.62502 10.5832ZM9.62502 7.74984C10.2153 7.74984 10.7168 7.543 11.1295 7.12934C11.5432 6.71662 11.75 6.21511 11.75 5.62484C11.75 5.03456 11.5432 4.53306 11.1295 4.12034C10.7168 3.70667 10.2153 3.49984 9.62502 3.49984C9.03474 3.49984 8.53324 3.70667 8.12052 4.12034C7.70685 4.53306 7.50002 5.03456 7.50002 5.62484C7.50002 6.21511 7.70685 6.71662 8.12052 7.12934C8.53324 7.543 9.03474 7.74984 9.62502 7.74984ZM22.375 23.3332C21.0056 23.3332 19.8368 22.8491 18.8688 21.8811C17.9007 20.913 17.4167 19.7443 17.4167 18.3748C17.4167 17.0054 17.9007 15.8366 18.8688 14.8686C19.8368 13.9005 21.0056 13.4165 22.375 13.4165C23.7445 13.4165 24.9132 13.9005 25.8813 14.8686C26.8493 15.8366 27.3334 17.0054 27.3334 18.3748C27.3334 19.7443 26.8493 20.913 25.8813 21.8811C24.9132 22.8491 23.7445 23.3332 22.375 23.3332ZM22.375 20.4998C22.9653 20.4998 23.4668 20.293 23.8795 19.8793C24.2932 19.4666 24.5 18.9651 24.5 18.3748C24.5 17.7846 24.2932 17.2831 23.8795 16.8703C23.4668 16.4567 22.9653 16.2498 22.375 16.2498C21.7847 16.2498 21.2832 16.4567 20.8705 16.8703C20.4569 17.2831 20.25 17.7846 20.25 18.3748C20.25 18.9651 20.4569 19.4666 20.8705 19.8793C21.2832 20.293 21.7847 20.4998 22.375 20.4998ZM6.65002 23.3332L4.66669 21.3498L25.35 0.666504L27.3334 2.64984L6.65002 23.3332Z" fill="#818181"/>
<path opacity="0.5" d="M0.155079 42H1.38555V38.0967H3.74395L5.85625 42H7.29863L5.01543 37.9053C6.2459 37.5156 6.99785 36.4561 6.99785 35.0889V35.0752C6.99785 33.2979 5.75371 32.1357 3.85332 32.1357H0.155079V42ZM1.38555 37.0098V33.2295H3.68926C4.95391 33.2295 5.72637 33.9268 5.72637 35.1025V35.1162C5.72637 36.3262 5.00859 37.0098 3.74395 37.0098H1.38555ZM10.7064 42.1367C11.6566 42.1367 12.5111 41.624 12.9281 40.8447H12.9555V42H14.1449V37.085C14.1449 35.6631 13.0922 34.7539 11.4105 34.7539C9.73574 34.7539 8.71719 35.6973 8.61465 36.8662L8.60781 36.9414H9.75625L9.76992 36.8799C9.90664 36.2441 10.4809 35.8066 11.3969 35.8066C12.3881 35.8066 12.9555 36.333 12.9555 37.2012V37.7959L10.9184 37.9121C9.28457 38.0078 8.34121 38.7666 8.34121 39.9766V39.9902C8.34121 41.2822 9.29141 42.1367 10.7064 42.1367ZM9.55801 39.9902V39.9766C9.55801 39.3135 10.1049 38.8896 11.0551 38.835L12.9555 38.7188V39.2998C12.9555 40.332 12.0941 41.1045 10.973 41.1045C10.1186 41.1045 9.55801 40.6738 9.55801 39.9902ZM18.3662 42.1367C18.5986 42.1367 18.8516 42.1094 19.002 42.0889V41.125C18.8994 41.1318 18.7627 41.1523 18.6191 41.1523C17.9834 41.1523 17.6484 40.9404 17.6484 40.1816V35.875H19.002V34.8906H17.6484V32.9697H16.418V34.8906H15.3789V35.875H16.418V40.1885C16.418 41.5488 17.0605 42.1367 18.3662 42.1367ZM23.401 42.1367C24.9527 42.1367 26.1148 41.207 26.3473 40.0312L26.3609 39.9629H25.192L25.1715 40.0244C24.9664 40.6328 24.3307 41.084 23.4283 41.084C22.1637 41.084 21.357 40.2295 21.3297 38.7666H26.4498V38.3291C26.4498 36.1963 25.2672 34.7539 23.3258 34.7539C21.3844 34.7539 20.1266 36.2646 20.1266 38.4658V38.4727C20.1266 40.708 21.357 42.1367 23.401 42.1367ZM23.3189 35.8066C24.358 35.8066 25.1236 36.4561 25.2398 37.8369H21.3502C21.4801 36.5107 22.2867 35.8066 23.3189 35.8066ZM30.5754 42.1367C32.1613 42.1367 33.3371 41.2617 33.3371 40.0176V40.0107C33.3371 38.999 32.8176 38.4316 31.382 38.083L30.2541 37.8096C29.468 37.6182 29.1467 37.2832 29.1467 36.7979V36.791C29.1467 36.1621 29.6799 35.7451 30.5412 35.7451C31.423 35.7451 31.9494 36.2031 32.0451 36.8936L32.052 36.9414H33.1867L33.1799 36.8525C33.091 35.6631 32.0998 34.7539 30.5412 34.7539C29.0031 34.7539 27.9299 35.6221 27.9299 36.8457V36.8525C27.9299 37.8779 28.5793 38.5 29.9191 38.8213L31.0471 39.0947C31.8537 39.293 32.1203 39.5801 32.1203 40.0928V40.0996C32.1203 40.7422 31.5461 41.1455 30.5822 41.1455C29.6115 41.1455 29.0852 40.7285 28.9416 40.0176L28.9279 39.9492H27.7385L27.7453 40.0107C27.8889 41.2822 28.9006 42.1367 30.5754 42.1367Z" fill="#414141"/>
</svg>
