<svg width="16" height="15" viewBox="0 0 16 15" fill="none" xmlns="http://www.w3.org/2000/svg">
<path d="M15.0312 1.0625C14.75 0.96875 14.4062 1.03125 14.2188 1.25L12.625 2.8125C11.375 1.6875 9.75 1 8 1C4.90625 1 2.125 3.09375 1.25 6.0625C1.15625 6.4375 1.375 6.875 1.78125 6.96875C2.1875 7.09375 2.59375 6.875 2.6875 6.46875C3.375 4.15625 5.5625 2.5 8 2.5C9.34375 2.5 10.5938 3.03125 11.5625 3.875L9.71875 5.75C9.5 5.9375 9.4375 6.28125 9.53125 6.5625C9.65625 6.84375 9.9375 7 10.25 7H14.7188C15.1562 7 15.5 6.6875 15.5 6.25V1.75C15.5 1.46875 15.3125 1.1875 15.0312 1.0625ZM14.1875 9.03125C13.7812 8.90625 13.375 9.125 13.25 9.53125C12.5938 11.875 10.4062 13.5 7.96875 13.5C6.59375 13.5 5.34375 13 4.375 12.1562L6.25 10.2812C6.4375 10.0938 6.5 9.75 6.40625 9.46875C6.3125 9.1875 6.03125 9 5.71875 9H1.25C0.8125 9 0.46875 9.34375 0.46875 9.75V14.25C0.46875 14.5625 0.65625 14.8438 0.9375 14.9688C1.03125 15 1.125 15 1.21875 15C1.4375 15 1.625 14.9375 1.75 14.7812L3.34375 13.2188C4.59375 14.3438 6.21875 15 7.96875 15C11.0625 15 13.8125 12.9375 14.6875 9.96875C14.8125 9.5625 14.5938 9.15625 14.1875 9.03125Z" fill="#226169"/>
</svg>
