<svg width="17" height="20" viewBox="0 0 17 20" fill="none" xmlns="http://www.w3.org/2000/svg">
<path d="M7.52397 19.475C5.42598 18.8917 3.69111 17.621 2.31936 15.663C0.947598 13.7044 0.261719 11.5167 0.261719 9.10005V3.35005L7.52397 0.550049L14.7862 3.35005V9.00005C14.5603 8.91671 14.3224 8.83738 14.0726 8.76205C13.8221 8.68738 13.5758 8.62505 13.3338 8.57505V4.40005L7.52397 2.15005L1.71417 4.40005V9.10005C1.71417 9.98338 1.83521 10.846 2.07728 11.688C2.31936 12.5294 2.65439 13.3207 3.08238 14.062C3.50972 14.804 4.01808 15.4667 4.60745 16.05C5.19617 16.6334 5.83751 17.1 6.53146 17.45L6.55567 17.425C6.68477 17.7917 6.85035 18.1417 7.0524 18.475C7.25381 18.8084 7.48362 19.1167 7.74183 19.4C7.70956 19.4167 7.67728 19.4294 7.645 19.438C7.61273 19.446 7.57238 19.4584 7.52397 19.475Z" fill="#226169"/>
<path d="M12.3652 15C12.7686 15 13.1114 14.854 13.3935 14.562C13.6762 14.2707 13.8176 13.9167 13.8176 13.5C13.8176 13.0833 13.6762 12.7293 13.3935 12.438C13.1114 12.146 12.7686 12 12.3652 12C11.9617 12 11.6189 12.146 11.3368 12.438C11.0541 12.7293 10.9127 13.0833 10.9127 13.5C10.9127 13.9167 11.0541 14.2707 11.3368 14.562C11.6189 14.854 11.9617 15 12.3652 15ZM12.3652 18C12.8654 18 13.3254 17.879 13.745 17.637C14.1646 17.3957 14.5035 17.075 14.7617 16.675C14.4067 16.4583 14.0274 16.2917 13.624 16.175C13.2205 16.0583 12.8009 16 12.3652 16C11.9294 16 11.5098 16.0583 11.1064 16.175C10.7029 16.2917 10.3237 16.4583 9.96862 16.675C10.2268 17.075 10.5657 17.3957 10.9853 17.637C11.4049 17.879 11.8649 18 12.3652 18ZM12.3652 19.5C11.1548 19.5 10.1258 19.0627 9.27822 18.188C8.43128 17.3127 8.00781 16.25 8.00781 15C8.00781 13.75 8.43128 12.6873 9.27822 11.812C10.1258 10.9373 11.1548 10.5 12.3652 10.5C13.5755 10.5 14.6045 10.9373 15.4521 11.812C16.299 12.6873 16.7225 13.75 16.7225 15C16.7225 16.25 16.299 17.3127 15.4521 18.188C14.6045 19.0627 13.5755 19.5 12.3652 19.5Z" fill="#226169"/>
</svg>
