<svg width="110" height="110" viewBox="0 0 110 110" fill="none" xmlns="http://www.w3.org/2000/svg">
<path d="M73.959 49.5833C76.2159 49.5833 78.1334 48.7924 79.7115 47.2108C81.2932 45.6327 82.084 43.7152 82.084 41.4583C82.084 39.2013 81.2932 37.2838 79.7115 35.7058C78.1334 34.1241 76.2159 33.3333 73.959 33.3333C71.702 33.3333 69.7845 34.1241 68.2065 35.7058C66.6248 37.2838 65.834 39.2013 65.834 41.4583C65.834 43.7152 66.6248 45.6327 68.2065 47.2108C69.7845 48.7924 71.702 49.5833 73.959 49.5833ZM36.0423 49.5833C38.2993 49.5833 40.2168 48.7924 41.7948 47.2108C43.3765 45.6327 44.1673 43.7152 44.1673 41.4583C44.1673 39.2013 43.3765 37.2838 41.7948 35.7058C40.2168 34.1241 38.2993 33.3333 36.0423 33.3333C33.7854 33.3333 31.8679 34.1241 30.2898 35.7058C28.7082 37.2838 27.9173 39.2013 27.9173 41.4583C27.9173 43.7152 28.7082 45.6327 30.2898 47.2108C31.8679 48.7924 33.7854 49.5833 36.0423 49.5833ZM55.0007 84.7916C61.1395 84.7916 66.7151 83.0546 71.7273 79.5808C76.7359 76.1033 80.3687 71.5208 82.6257 65.8333H73.6882C71.702 69.1735 69.0623 71.8133 65.769 73.7524C62.472 75.6952 58.8826 76.6666 55.0007 76.6666C51.1187 76.6666 47.5293 75.6952 44.2323 73.7524C40.939 71.8133 38.2993 69.1735 36.3132 65.8333H27.3757C29.6326 71.5208 33.2672 76.1033 38.2794 79.5808C43.288 83.0546 48.8618 84.7916 55.0007 84.7916ZM55.0007 109.167C47.5076 109.167 40.4659 107.744 33.8757 104.898C27.2854 102.056 21.5527 98.1978 16.6777 93.3228C11.8027 88.4478 7.94426 82.7152 5.10232 76.1249C2.25676 69.5346 0.833984 62.493 0.833984 54.9999C0.833984 47.5069 2.25676 40.4652 5.10232 33.8749C7.94426 27.2846 11.8027 21.552 16.6777 16.677C21.5527 11.802 27.2854 7.94172 33.8757 5.09617C40.4659 2.25422 47.5076 0.833252 55.0007 0.833252C62.4937 0.833252 69.5354 2.25422 76.1257 5.09617C82.7159 7.94172 88.4486 11.802 93.3236 16.677C98.1986 21.552 102.057 27.2846 104.899 33.8749C107.745 40.4652 109.167 47.5069 109.167 54.9999C109.167 62.493 107.745 69.5346 104.899 76.1249C102.057 82.7152 98.1986 88.4478 93.3236 93.3228C88.4486 98.1978 82.7159 102.056 76.1257 104.898C69.5354 107.744 62.4937 109.167 55.0007 109.167ZM55.0007 98.3333C67.0979 98.3333 77.3444 94.1353 85.7402 85.7395C94.1361 77.3437 98.334 67.0971 98.334 54.9999C98.334 42.9027 94.1361 32.6562 85.7402 24.2603C77.3444 15.8645 67.0979 11.6666 55.0007 11.6666C42.9034 11.6666 32.6569 15.8645 24.2611 24.2603C15.8652 32.6562 11.6673 42.9027 11.6673 54.9999C11.6673 67.0971 15.8652 77.3437 24.2611 85.7395C32.6569 94.1353 42.9034 98.3333 55.0007 98.3333Z" fill="#226169"/>
</svg>
