<svg width="24" height="24" viewBox="0 0 24 24" fill="none" xmlns="http://www.w3.org/2000/svg">
<path d="M8.875 23.75L8.375 19.9375C8.04167 19.8333 7.70333 19.6771 7.36 19.4688C7.01583 19.2604 6.69792 19.0417 6.40625 18.8125L2.875 20.3125L0 15.3125L3.0625 13C3.02083 12.8125 2.995 12.625 2.985 12.4375C2.97417 12.25 2.96875 12.0625 2.96875 11.875C2.96875 11.7083 2.97417 11.5312 2.985 11.3438C2.995 11.1562 3.02083 10.9583 3.0625 10.75L0 8.4375L2.875 3.46875L6.40625 4.9375C6.69792 4.70833 7.01583 4.495 7.36 4.2975C7.70333 4.09917 8.04167 3.9375 8.375 3.8125L8.875 0H14.625L15.125 3.8125C15.5 3.95833 15.8383 4.11958 16.14 4.29625C16.4425 4.47375 16.75 4.6875 17.0625 4.9375L20.625 3.46875L23.5 8.4375L20.4062 10.7812C20.4479 10.9896 20.4688 11.1771 20.4688 11.3438V11.875C20.4688 12.0417 20.4633 12.2133 20.4525 12.39C20.4425 12.5675 20.4167 12.7708 20.375 13L23.4375 15.3125L20.5625 20.3125L17.0625 18.8125C16.75 19.0625 16.4325 19.2812 16.11 19.4688C15.7867 19.6563 15.4583 19.8125 15.125 19.9375L14.625 23.75H8.875ZM11.75 15.625C12.7917 15.625 13.6771 15.2604 14.4062 14.5312C15.1354 13.8021 15.5 12.9167 15.5 11.875C15.5 10.8333 15.1354 9.94792 14.4062 9.21875C13.6771 8.48958 12.7917 8.125 11.75 8.125C10.7083 8.125 9.82292 8.48958 9.09375 9.21875C8.36458 9.94792 8 10.8333 8 11.875C8 12.9167 8.36458 13.8021 9.09375 14.5312C9.82292 15.2604 10.7083 15.625 11.75 15.625Z" fill="url(#paint0_linear_0_16028)"/>
<defs>
<linearGradient id="paint0_linear_0_16028" x1="4.01658" y1="5.4634e-07" x2="21.0013" y2="21.8975" gradientUnits="userSpaceOnUse">
<stop stop-color="#1A3C40"/>
<stop offset="0.468163" stop-color="#236269"/>
<stop offset="1" stop-color="#1A3C40"/>
</linearGradient>
</defs>
</svg>
