<svg width="21" height="19" viewBox="0 0 21 19" fill="none" xmlns="http://www.w3.org/2000/svg">
<path d="M2.74324 18C2.21068 18 1.75461 17.8043 1.37503 17.413C0.996104 17.021 0.806641 16.55 0.806641 16V2C0.806641 1.45 0.996104 0.979 1.37503 0.587C1.75461 0.195667 2.21068 0 2.74324 0H16.2994C16.832 0 17.2881 0.195667 17.6676 0.587C18.0466 0.979 18.236 1.45 18.236 2V7.675C17.9294 7.525 17.6147 7.4 17.2919 7.3C16.9692 7.2 16.6383 7.125 16.2994 7.075V2H2.74324V14.85C3.55016 14.05 4.46617 13.4 5.49127 12.9C6.51574 12.4 7.62508 12.1083 8.81932 12.025C8.73863 12.3417 8.67408 12.675 8.62566 13.025C8.57725 13.375 8.55304 13.7167 8.55304 14.05C7.82681 14.1333 7.14093 14.3167 6.4954 14.6C5.84987 14.8833 5.24468 15.2667 4.67984 15.75V16H8.84353C8.9565 16.3667 9.0856 16.7167 9.23085 17.05C9.37609 17.3833 9.55361 17.7 9.76341 18H2.74324ZM9.52134 10H9.76341C10.1346 9.45 10.5745 8.96233 11.0832 8.537C11.5912 8.11233 12.1519 7.775 12.7651 7.525C12.8136 7.35833 12.85 7.19167 12.8746 7.025C12.8984 6.85833 12.9104 6.68333 12.9104 6.5C12.9104 5.53333 12.5796 4.70833 11.9179 4.025C11.2562 3.34167 10.4574 3 9.52134 3C8.58531 3 7.78647 3.34167 7.1248 4.025C6.46312 4.70833 6.13229 5.53333 6.13229 6.5C6.13229 7.46667 6.46312 8.29167 7.1248 8.975C7.78647 9.65833 8.58531 10 9.52134 10ZM9.52134 8C9.11788 8 8.7751 7.854 8.493 7.562C8.21026 7.27067 8.06889 6.91667 8.06889 6.5C8.06889 6.08333 8.21026 5.72933 8.493 5.438C8.7751 5.146 9.11788 5 9.52134 5C9.9248 5 10.2676 5.146 10.5497 5.438C10.8324 5.72933 10.9738 6.08333 10.9738 6.5C10.9738 6.91667 10.8324 7.27067 10.5497 7.562C10.2676 7.854 9.9248 8 9.52134 8ZM14.3628 19L14.0723 17.5C13.8787 17.4167 13.6973 17.3293 13.5282 17.238C13.3584 17.146 13.1847 17.0333 13.0072 16.9L11.6032 17.35L10.6349 15.65L11.7484 14.65C11.7162 14.4167 11.7 14.2 11.7 14C11.7 13.8 11.7162 13.5833 11.7484 13.35L10.6349 12.35L11.6032 10.65L13.0072 11.1C13.1847 10.9667 13.3584 10.854 13.5282 10.762C13.6973 10.6707 13.8787 10.5833 14.0723 10.5L14.3628 9H16.2994L16.5899 10.5C16.7836 10.5833 16.9653 10.675 17.1351 10.775C17.3042 10.875 17.4775 11 17.6551 11.15L19.0591 10.65L20.0274 12.4L18.9138 13.4C18.9461 13.6 18.9623 13.8083 18.9623 14.025C18.9623 14.2417 18.9461 14.45 18.9138 14.65L20.0274 15.65L19.0591 17.35L17.6551 16.9C17.4775 17.0333 17.3042 17.146 17.1351 17.238C16.9653 17.3293 16.7836 17.4167 16.5899 17.5L16.2994 19H14.3628ZM15.3311 16C15.8637 16 16.3198 15.8043 16.6993 15.413C17.0783 15.021 17.2677 14.55 17.2677 14C17.2677 13.45 17.0783 12.979 16.6993 12.587C16.3198 12.1957 15.8637 12 15.3311 12C14.7986 12 14.3425 12.1957 13.9629 12.587C13.584 12.979 13.3945 13.45 13.3945 14C13.3945 14.55 13.584 15.021 13.9629 15.413C14.3425 15.8043 14.7986 16 15.3311 16Z" fill="#226169"/>
</svg>
