<svg width="17" height="13" viewBox="0 0 17 13" fill="none" xmlns="http://www.w3.org/2000/svg">
<path d="M15.5664 0.5625C15.9492 0.5625 16.2227 0.863281 16.2227 1.21875C16.2227 1.57422 15.9219 1.875 15.5664 1.875H9.03125C8.64844 1.875 8.375 1.57422 8.375 1.21875C8.375 0.863281 8.64844 0.5625 9.03125 0.5625H15.5664ZM10.3438 11.0625C10.6992 11.0625 10.9727 11.3633 10.9727 11.7188C10.9727 12.1016 10.6992 12.375 10.3438 12.375H9.03125C8.64844 12.375 8.375 12.0742 8.375 11.7188C8.375 11.3359 8.64844 11.0625 9.03125 11.0625H10.3438ZM12.0664 7.5625C12.4492 7.5625 12.7227 7.86328 12.7227 8.21875C12.7227 8.60156 12.4219 8.875 12.0664 8.875H9.03125C8.64844 8.875 8.375 8.60156 8.375 8.21875C8.375 7.86328 8.64844 7.5625 9.03125 7.5625H12.0664ZM13.8164 4.0625C14.1992 4.0625 14.4727 4.36328 14.4727 4.71875C14.4727 5.10156 14.1719 5.375 13.8164 5.375H9.03125C8.64844 5.375 8.375 5.10156 8.375 4.71875C8.375 4.36328 8.64844 4.0625 9.03125 4.0625H13.8164ZM4.46484 0.34375L7.08984 3.1875C7.33594 3.46094 7.33594 3.87109 7.0625 4.11719C6.78906 4.36328 6.37891 4.33594 6.13281 4.08984L4.65625 2.47656V11.7188C4.65625 12.1016 4.35547 12.375 4 12.375C3.61719 12.375 3.34375 12.1016 3.34375 11.7188V2.47656L1.83984 4.08984C1.70312 4.22656 1.53906 4.28125 1.375 4.28125C1.21094 4.28125 1.04688 4.22656 0.910156 4.11719C0.636719 3.87109 0.636719 3.46094 0.882812 3.1875L3.50781 0.34375C3.75391 0.0703125 4.21875 0.0703125 4.46484 0.34375Z" fill="#818181"/>
</svg>
