<svg width="121" height="236" viewBox="0 0 121 236" fill="none" xmlns="http://www.w3.org/2000/svg">
<path d="M96.6068 114.215L105.066 100.421L91.8753 106.755L96.6068 114.215Z" fill="#25282A"/>
<path d="M23.5685 114.215L15.1089 100.421L28.2999 106.755L23.5685 114.215Z" fill="#25282A"/>
<path d="M105.066 18.5862L72.9217 91.3985L91.4867 124.114L67.2106 182.288H60.0876" fill="#25282A"/>
<path d="M15.1089 18.5862L47.2337 91.3985L28.6926 124.114L52.9409 182.288H60.0916" fill="#25282A"/>
<path d="M15.1089 217.808V200.032H18.8092C21.3435 200.032 23.1957 200.222 24.3696 200.603C25.5634 200.964 26.5866 201.551 27.4472 202.36C28.3079 203.153 28.9702 204.125 29.4342 205.283C29.8983 206.437 30.1283 207.793 30.1283 209.344C30.1283 210.895 29.7634 212.33 29.0376 213.703C28.3277 215.055 27.3481 216.078 26.1067 216.772C24.8812 217.466 23.1124 217.812 20.7923 217.812H15.105L15.1089 217.808ZM16.8223 216.126H18.8846C21.0382 216.126 22.5928 216.019 23.5526 215.805C24.5283 215.591 25.3809 215.17 26.1107 214.543C26.8404 213.901 27.3917 213.124 27.7725 212.215C28.1532 211.307 28.3436 210.268 28.3436 209.098C28.3436 207.928 28.1215 206.845 27.6733 205.854C27.241 204.862 26.6223 204.045 25.8093 203.403C24.9962 202.76 24.0365 202.332 22.9299 202.114C21.8393 201.884 20.2251 201.769 18.0874 201.769H16.8223V216.126Z" fill="#716E6A"/>
<path d="M38.6512 200.032H40.4637V207.484H49.5261V200.032H51.3148V217.808H49.5261V209.217H40.4637V217.808H38.6512V200.032Z" fill="#716E6A"/>
<path d="M68.0038 200.032L75.9993 217.808H74.1631L71.4662 211.977H64.0695L61.3964 217.808H59.4888L67.5795 200.032H68.0078H68.0038ZM67.7897 203.815L64.8548 210.24H70.7007L67.7897 203.815Z" fill="#716E6A"/>
<path d="M84.2367 200.032H87.7625C89.6345 200.032 91.0464 200.413 92.0062 201.17C92.9818 201.912 93.4697 202.986 93.4697 204.387C93.4697 205.164 93.2714 205.882 92.8748 206.54C92.494 207.183 91.9308 207.702 91.1852 208.099C92.4107 208.495 93.3388 209.09 93.9654 209.879C94.6119 210.673 94.9331 211.613 94.9331 212.703C94.9331 214.171 94.3937 215.392 93.3189 216.368C92.2442 217.324 90.8521 217.804 89.1467 217.804H84.2288V200.028L84.2367 200.032ZM86.0016 201.765V207.46H87.0209C88.5756 207.46 89.7376 207.214 90.4951 206.719C91.2566 206.223 91.6374 205.449 91.6374 204.39C91.6374 202.641 90.4475 201.769 88.064 201.769H86.0016V201.765ZM86.0016 209.241V216.074H88.2107C89.4838 216.074 90.4198 215.951 91.0147 215.702C91.6255 215.436 92.1252 215.043 92.5059 214.512C92.8866 213.968 93.077 213.413 93.077 212.854C93.077 212.295 92.9699 211.799 92.7558 211.367C92.5416 210.938 92.2164 210.558 91.7881 210.228C91.3756 209.899 90.8679 209.649 90.273 209.487C89.694 209.32 88.5994 209.241 86.9971 209.241H86.0056H86.0016Z" fill="#716E6A"/>
<path d="M103.286 200.032H105.074V217.808H103.286V200.032Z" fill="#716E6A"/>
</svg>
