<svg width="64" height="46" viewBox="0 0 64 46" fill="none" xmlns="http://www.w3.org/2000/svg">
<path d="M23.8333 22.6667C23.0542 22.6667 22.3874 22.3895 21.833 21.8351C21.2777 21.2797 21 20.6125 21 19.8333V15.5833H23.8333V19.8333H40.8333V15.5833H43.6667V19.8333C43.6667 20.6125 43.3895 21.2797 42.8351 21.8351C42.2797 22.3895 41.6125 22.6667 40.8333 22.6667H23.8333ZM32.3333 17L25.25 9.91667L27.2333 7.8625L30.9167 11.5458V0H33.75V11.5458L37.4333 7.8625L39.4167 9.91667L32.3333 17Z" fill="#818181"/>
<path opacity="0.5" d="M4.25254 45.1641C6.5084 45.1641 7.89609 44.0566 7.89609 42.3066V42.2998C7.89609 40.7959 7.04844 39.9756 5.025 39.5312L3.93125 39.292C2.64609 39.0117 2.05137 38.5059 2.05137 37.6992V37.6924C2.05137 36.7422 2.91269 36.1133 4.23203 36.1064C5.48301 36.1064 6.32383 36.7012 6.47422 37.7061L6.48789 37.8018H7.71836L7.71152 37.6992C7.60215 36.0859 6.19394 34.9717 4.26621 34.9717C2.23594 34.9717 0.80039 36.1064 0.793554 37.7266V37.7334C0.793554 39.1758 1.6959 40.0439 3.62363 40.4678L4.71738 40.707C6.0709 41.0078 6.63828 41.4932 6.63828 42.3613V42.3682C6.63828 43.3867 5.74277 44.0293 4.3209 44.0293C2.89219 44.0293 1.93516 43.4209 1.7916 42.4297L1.77793 42.334H0.547461L0.554296 42.4297C0.677343 44.1182 2.11973 45.1641 4.25254 45.1641ZM11.8645 45.1367C12.0969 45.1367 12.3498 45.1094 12.5002 45.0889V44.125C12.3977 44.1318 12.2609 44.1523 12.1174 44.1523C11.4816 44.1523 11.1467 43.9404 11.1467 43.1816V38.875H12.5002V37.8906H11.1467V35.9697H9.91621V37.8906H8.87715V38.875H9.91621V43.1885C9.91621 44.5488 10.5588 45.1367 11.8645 45.1367ZM16.1199 45.1367C17.0701 45.1367 17.9246 44.624 18.3416 43.8447H18.3689V45H19.5584V40.085C19.5584 38.6631 18.5057 37.7539 16.824 37.7539C15.1492 37.7539 14.1307 38.6973 14.0281 39.8662L14.0213 39.9414H15.1697L15.1834 39.8799C15.3201 39.2441 15.8943 38.8066 16.8104 38.8066C17.8016 38.8066 18.3689 39.333 18.3689 40.2012V40.7959L16.3318 40.9121C14.698 41.0078 13.7547 41.7666 13.7547 42.9766V42.9902C13.7547 44.2822 14.7049 45.1367 16.1199 45.1367ZM14.9715 42.9902V42.9766C14.9715 42.3135 15.5184 41.8896 16.4686 41.835L18.3689 41.7188V42.2998C18.3689 43.332 17.5076 44.1045 16.3865 44.1045C15.532 44.1045 14.9715 43.6738 14.9715 42.9902ZM23.7797 45.1367C24.0121 45.1367 24.265 45.1094 24.4154 45.0889V44.125C24.3129 44.1318 24.1762 44.1523 24.0326 44.1523C23.3969 44.1523 23.0619 43.9404 23.0619 43.1816V38.875H24.4154V37.8906H23.0619V35.9697H21.8314V37.8906H20.7924V38.875H21.8314V43.1885C21.8314 44.5488 22.474 45.1367 23.7797 45.1367ZM28.8145 45.1367C30.3662 45.1367 31.5283 44.207 31.7607 43.0312L31.7744 42.9629H30.6055L30.585 43.0244C30.3799 43.6328 29.7441 44.084 28.8418 44.084C27.5771 44.084 26.7705 43.2295 26.7432 41.7666H31.8633V41.3291C31.8633 39.1963 30.6807 37.7539 28.7393 37.7539C26.7979 37.7539 25.54 39.2646 25.54 41.4658V41.4727C25.54 43.708 26.7705 45.1367 28.8145 45.1367ZM28.7324 38.8066C29.7715 38.8066 30.5371 39.4561 30.6533 40.8369H26.7637C26.8936 39.5107 27.7002 38.8066 28.7324 38.8066ZM33.4664 45H34.6559V40.543C34.6559 39.5518 35.3395 38.8066 36.2828 38.8066C37.1646 38.8066 37.7389 39.374 37.7389 40.2354V45H38.9283V40.4814C38.9283 39.5107 39.5914 38.8066 40.5348 38.8066C41.4713 38.8066 42.0113 39.3877 42.0113 40.3652V45H43.2008V40.0918C43.2008 38.6768 42.2916 37.7539 40.8834 37.7539C39.8854 37.7539 39.0514 38.2666 38.6549 39.1211H38.6275C38.3199 38.2529 37.6021 37.7539 36.6314 37.7539C35.7154 37.7539 35.0045 38.2256 34.6832 38.9297H34.6559V37.8906H33.4664V45ZM48.0441 45.1367C49.5959 45.1367 50.758 44.207 50.9904 43.0312L51.0041 42.9629H49.8352L49.8147 43.0244C49.6096 43.6328 48.9738 44.084 48.0715 44.084C46.8068 44.084 46.0002 43.2295 45.9729 41.7666H51.093V41.3291C51.093 39.1963 49.9104 37.7539 47.9689 37.7539C46.0275 37.7539 44.7697 39.2646 44.7697 41.4658V41.4727C44.7697 43.708 46.0002 45.1367 48.0441 45.1367ZM47.9621 38.8066C49.0012 38.8066 49.7668 39.4561 49.883 40.8369H45.9934C46.1232 39.5107 46.9299 38.8066 47.9621 38.8066ZM52.6961 45H53.8855V40.8164C53.8855 39.6064 54.617 38.8066 55.7381 38.8066C56.8318 38.8066 57.3719 39.4424 57.3719 40.5977V45H58.5613V40.3857C58.5613 38.7656 57.659 37.7539 56.1004 37.7539C55.0203 37.7539 54.2957 38.2393 53.9129 38.9023H53.8855V37.8906H52.6961V45ZM62.7895 45.1367C63.0219 45.1367 63.2748 45.1094 63.4252 45.0889V44.125C63.3227 44.1318 63.1859 44.1523 63.0424 44.1523C62.4066 44.1523 62.0717 43.9404 62.0717 43.1816V38.875H63.4252V37.8906H62.0717V35.9697H60.8412V37.8906H59.8021V38.875H60.8412V43.1885C60.8412 44.5488 61.4838 45.1367 62.7895 45.1367Z" fill="#818181"/>
</svg>
