<svg width="50" height="42" viewBox="0 0 50 42" fill="none" xmlns="http://www.w3.org/2000/svg">
<path d="M23.583 25.75V22.9167H34.9163V12.8583C34.9163 11.4889 34.6566 10.2021 34.1372 8.99792C33.6177 7.79375 32.9094 6.74306 32.0122 5.84583C31.115 4.94861 30.0643 4.24028 28.8601 3.72083C27.6559 3.20139 26.3691 2.94167 24.9997 2.94167C23.6302 2.94167 22.3434 3.20139 21.1393 3.72083C19.9351 4.24028 18.8844 4.94861 17.9872 5.84583C17.09 6.74306 16.3816 7.79375 15.8622 8.99792C15.3427 10.2021 15.083 11.4889 15.083 12.8583V21.5H13.6663C12.8872 21.5 12.2204 21.2228 11.666 20.6684C11.1107 20.1131 10.833 19.4458 10.833 18.6667V15.8333C10.833 15.2903 10.9629 14.8119 11.2226 14.3983C11.4823 13.9855 11.8247 13.6493 12.2497 13.3896L12.3559 11.5125C12.5684 9.78889 13.0586 8.23056 13.8264 6.8375C14.5933 5.44444 15.5496 4.26389 16.6952 3.29583C17.8398 2.32778 19.1266 1.57789 20.5556 1.04617C21.9836 0.515389 23.465 0.25 24.9997 0.25C26.558 0.25 28.0516 0.515389 29.4806 1.04617C30.9086 1.57789 32.1893 2.33344 33.3226 3.31283C34.4559 4.29317 35.4065 5.47372 36.1743 6.8545C36.9412 8.23622 37.4309 9.77708 37.6434 11.4771L37.7497 13.3188C38.1747 13.5313 38.517 13.8439 38.7768 14.2566C39.0365 14.6702 39.1663 15.125 39.1663 15.6208V18.8792C39.1663 19.3986 39.0365 19.859 38.7768 20.2604C38.517 20.6618 38.1747 20.9687 37.7497 21.1812V22.9167C37.7497 23.6958 37.4725 24.3631 36.9181 24.9184C36.3628 25.4728 35.6955 25.75 34.9163 25.75H23.583ZM20.7497 15.8333C20.3483 15.8333 20.0121 15.6973 19.741 15.4253C19.469 15.1543 19.333 14.8181 19.333 14.4167C19.333 14.0153 19.469 13.6786 19.741 13.4066C20.0121 13.1355 20.3483 13 20.7497 13C21.1511 13 21.4878 13.1355 21.7598 13.4066C22.0308 13.6786 22.1663 14.0153 22.1663 14.4167C22.1663 14.8181 22.0308 15.1543 21.7598 15.4253C21.4878 15.6973 21.1511 15.8333 20.7497 15.8333ZM29.2497 15.8333C28.8483 15.8333 28.5121 15.6973 28.241 15.4253C27.969 15.1543 27.833 14.8181 27.833 14.4167C27.833 14.0153 27.969 13.6786 28.241 13.4066C28.5121 13.1355 28.8483 13 29.2497 13C29.6511 13 29.9878 13.1355 30.2598 13.4066C30.5308 13.6786 30.6663 14.0153 30.6663 14.4167C30.6663 14.8181 30.5308 15.1543 30.2598 15.4253C29.9878 15.6973 29.6511 15.8333 29.2497 15.8333ZM16.5351 13.6375C16.4406 12.2444 16.6357 10.9812 17.1202 9.84792C17.6037 8.71458 18.2526 7.75219 19.0667 6.96075C19.8817 6.17025 20.8205 5.5625 21.883 5.1375C22.9455 4.7125 24.008 4.5 25.0705 4.5C27.2191 4.5 29.0787 5.17906 30.6493 6.53717C32.219 7.89433 33.1691 9.58819 33.4997 11.6187C31.2802 11.5951 29.2733 10.9987 27.4788 9.8295C25.6844 8.66122 24.3268 7.14444 23.4059 5.27917C23.0281 7.19167 22.2315 8.88553 21.016 10.3607C19.7996 11.8369 18.3059 12.9292 16.5351 13.6375Z" fill="#414141" fill-opacity="0.5"/>
<path opacity="0.5" d="M4.27656 38.1641C6.53242 38.1641 7.92012 37.0566 7.92012 35.3066V35.2998C7.92012 33.7959 7.07246 32.9756 5.04902 32.5312L3.95527 32.292C2.67012 32.0117 2.07539 31.5059 2.07539 30.6992V30.6924C2.07539 29.7422 2.93672 29.1133 4.25605 29.1064C5.50703 29.1064 6.34785 29.7012 6.49824 30.7061L6.51191 30.8018H7.74238L7.73555 30.6992C7.62617 29.0859 6.21797 27.9717 4.29023 27.9717C2.25996 27.9717 0.824413 29.1064 0.817577 30.7266V30.7334C0.817577 32.1758 1.71992 33.0439 3.64766 33.4678L4.74141 33.707C6.09492 34.0078 6.6623 34.4932 6.6623 35.3613V35.3682C6.6623 36.3867 5.7668 37.0293 4.34492 37.0293C2.91621 37.0293 1.95918 36.4209 1.81562 35.4297L1.80195 35.334H0.571484L0.57832 35.4297C0.701366 37.1182 2.14375 38.1641 4.27656 38.1641ZM12.0047 38.1367C13.0848 38.1367 13.8094 37.6514 14.1922 36.9883H14.2195V38H15.409V30.8906H14.2195V35.0742C14.2195 36.2842 13.4881 37.084 12.367 37.084C11.2732 37.084 10.7332 36.4482 10.7332 35.293V30.8906H9.54375V35.5049C9.54375 37.125 10.4461 38.1367 12.0047 38.1367ZM17.3607 40.3926H18.5502V36.8105H18.5775C19.0219 37.6309 19.849 38.1367 20.8539 38.1367C22.6381 38.1367 23.8549 36.6943 23.8549 34.4521V34.4453C23.8549 32.2031 22.6518 30.7539 20.8334 30.7539C19.8148 30.7539 19.0219 31.2666 18.5775 32.0938H18.5502V30.8906H17.3607V40.3926ZM20.601 37.084C19.4047 37.084 18.5434 36.0381 18.5434 34.4521V34.4453C18.5434 32.8525 19.3979 31.8066 20.601 31.8066C21.8588 31.8066 22.6381 32.8115 22.6381 34.4453V34.4521C22.6381 36.0723 21.8588 37.084 20.601 37.084ZM25.458 40.3926H26.6475V36.8105H26.6748C27.1191 37.6309 27.9463 38.1367 28.9512 38.1367C30.7354 38.1367 31.9521 36.6943 31.9521 34.4521V34.4453C31.9521 32.2031 30.749 30.7539 28.9307 30.7539C27.9121 30.7539 27.1191 31.2666 26.6748 32.0938H26.6475V30.8906H25.458V40.3926ZM28.6982 37.084C27.502 37.084 26.6406 36.0381 26.6406 34.4521V34.4453C26.6406 32.8525 27.4951 31.8066 28.6982 31.8066C29.9561 31.8066 30.7354 32.8115 30.7354 34.4453V34.4521C30.7354 36.0723 29.9561 37.084 28.6982 37.084ZM36.5016 38.1367C38.4635 38.1367 39.7896 36.7148 39.7896 34.4453V34.4316C39.7896 32.1621 38.4566 30.7539 36.4947 30.7539C34.5328 30.7539 33.2066 32.1689 33.2066 34.4316V34.4453C33.2066 36.708 34.526 38.1367 36.5016 38.1367ZM36.5084 37.084C35.2506 37.084 34.4234 36.1201 34.4234 34.4453V34.4316C34.4234 32.7705 35.2574 31.8066 36.4947 31.8066C37.7525 31.8066 38.5728 32.7637 38.5728 34.4316V34.4453C38.5728 36.1133 37.7594 37.084 36.5084 37.084ZM41.3928 38H42.5822V33.6113C42.5822 32.5312 43.1838 31.8887 44.1066 31.8887C44.3937 31.8887 44.6467 31.9229 44.7424 31.957V30.8018C44.6467 30.7881 44.4689 30.7539 44.2639 30.7539C43.4641 30.7539 42.8488 31.2734 42.6096 32.0938H42.5822V30.8906H41.3928V38ZM48.7654 38.1367C48.9979 38.1367 49.2508 38.1094 49.4012 38.0889V37.125C49.2986 37.1318 49.1619 37.1523 49.0184 37.1523C48.3826 37.1523 48.0477 36.9404 48.0477 36.1816V31.875H49.4012V30.8906H48.0477V28.9697H46.8172V30.8906H45.7781V31.875H46.8172V36.1885C46.8172 37.5488 47.4598 38.1367 48.7654 38.1367Z" fill="#414141"/>
</svg>
