<svg width="18" height="16" viewBox="0 0 18 16" fill="none" xmlns="http://www.w3.org/2000/svg">
<path d="M10 1.5H1.96875C1.71875 1.5 1.46875 1.75 1.46875 2V14C1.46875 14.2812 1.71875 14.5 1.96875 14.5H8.875C9.25 15.0938 9.71875 15.5938 10.2812 16C10.1875 16 10.0938 16 10 16H2C0.875 16 0 15.125 0 14V2C0 0.90625 0.875 0 2 0H10C11.0938 0 12 0.90625 12 2V6.21875C11.4375 6.375 10.9375 6.59375 10.5 6.90625V2C10.5 1.75 10.25 1.5 10 1.5ZM2.96875 4.75C2.96875 4.34375 3.3125 4 3.71875 4H8.21875C8.65625 4 8.96875 4.34375 8.96875 4.75C8.96875 5.1875 8.65625 5.5 8.21875 5.5H3.71875C3.3125 5.5 2.96875 5.1875 2.96875 4.75ZM8.21875 7C8.65625 7 8.96875 7.34375 8.96875 7.75C8.96875 8.1875 8.65625 8.5 8.21875 8.5H3.71875C3.3125 8.5 2.96875 8.1875 2.96875 7.75C2.96875 7.34375 3.3125 7 3.71875 7H8.21875ZM5.21875 10C5.65625 10 5.96875 10.3438 5.96875 10.75C5.96875 11.1875 5.65625 11.5 5.21875 11.5H3.71875C3.3125 11.5 2.96875 11.1875 2.96875 10.75C2.96875 10.3438 3.3125 10 3.71875 10H5.21875ZM18 11.5C18 14 15.9688 16 13.5 16C11 16 8.96875 14 8.96875 11.5C8.96875 9.03125 11 7 13.5 7C15.9688 7 18 9.03125 18 11.5ZM14.875 10.1562L13 12.0625L12.0938 11.1562C11.9062 10.9688 11.5625 10.9688 11.375 11.1562C11.1875 11.3438 11.1875 11.6875 11.375 11.875L12.625 13.125C12.8125 13.3125 13.1562 13.3125 13.3438 13.125L15.5938 10.875C15.7812 10.6875 15.7812 10.3438 15.5938 10.1562C15.4062 9.96875 15.0625 9.96875 14.875 10.1562Z" fill="#236269"/>
<path d="M18 11.5C18 14 15.9688 16 13.5 16C11 16 8.96875 14 8.96875 11.5C8.96875 9.03125 11 7 13.5 7C15.9688 7 18 9.03125 18 11.5ZM14.875 10.1562L13 12.0625L12.0938 11.1562C11.9062 10.9688 11.5625 10.9688 11.375 11.1562C11.1875 11.3438 11.1875 11.6875 11.375 11.875L12.625 13.125C12.8125 13.3125 13.1562 13.3125 13.3438 13.125L15.5938 10.875C15.7812 10.6875 15.7812 10.3438 15.5938 10.1562C15.4062 9.96875 15.0625 9.96875 14.875 10.1562Z" fill="#00B894"/>
</svg>
