<svg width="20" height="21" viewBox="0 0 20 21" fill="none" xmlns="http://www.w3.org/2000/svg">
<path d="M10 15.25C10.2833 15.25 10.521 15.154 10.713 14.962C10.9043 14.7707 11 14.5334 11 14.25C11 13.9667 10.9043 13.729 10.713 13.537C10.521 13.3457 10.2833 13.25 10 13.25C9.71667 13.25 9.47933 13.3457 9.288 13.537C9.096 13.729 9 13.9667 9 14.25C9 14.5334 9.096 14.7707 9.288 14.962C9.47933 15.154 9.71667 15.25 10 15.25ZM9 11.25H11V5.25003H9V11.25ZM10 20.25C8.61667 20.25 7.31667 19.9874 6.1 19.462C4.88333 18.9374 3.825 18.225 2.925 17.325C2.025 16.425 1.31267 15.3667 0.788 14.15C0.262667 12.9334 0 11.6334 0 10.25C0 8.8667 0.262667 7.5667 0.788 6.35003C1.31267 5.13336 2.025 4.07503 2.925 3.17503C3.825 2.27503 4.88333 1.56236 6.1 1.03703C7.31667 0.512364 8.61667 0.250031 10 0.250031C11.3833 0.250031 12.6833 0.512364 13.9 1.03703C15.1167 1.56236 16.175 2.27503 17.075 3.17503C17.975 4.07503 18.6873 5.13336 19.212 6.35003C19.7373 7.5667 20 8.8667 20 10.25C20 11.6334 19.7373 12.9334 19.212 14.15C18.6873 15.3667 17.975 16.425 17.075 17.325C16.175 18.225 15.1167 18.9374 13.9 19.462C12.6833 19.9874 11.3833 20.25 10 20.25Z" fill="#F39C12"/>
</svg>
